<svg xmlns="http://www.w3.org/2000/svg" xmlns:xlink="http://www.w3.org/1999/xlink" width="500" zoomAndPan="magnify" viewBox="0 0 375 374.999991" height="500" preserveAspectRatio="xMidYMid meet" version="1.0"><defs><clipPath id="dee3878e98"><path d="M 3 14.53125 L 371 14.53125 L 371 360.28125 L 3 360.28125 Z M 3 14.53125 " clip-rule="nonzero"/></clipPath></defs><g clip-path="url(#dee3878e98)"><path fill="#ffffff" d="M 42.640625 14.53125 C 34.695312 14.53125 28.226562 21.003906 28.226562 28.945312 L 28.226562 43.359375 C 28.226562 51.300781 34.695312 57.773438 42.640625 57.773438 L 330.917969 57.773438 C 338.863281 57.773438 345.332031 51.300781 345.332031 43.359375 L 345.332031 28.945312 C 345.332031 21.003906 338.863281 14.53125 330.917969 14.53125 Z M 42.46875 72.1875 C 34.527344 72.1875 28.054688 78.660156 28.054688 86.601562 L 28.054688 101.496094 L 3 173.085938 C 3 173.085938 3 187.5 17.414062 187.5 C 22.757812 187.5 26.109375 185.515625 28.226562 183.023438 L 28.226562 346.054688 C 28.226562 353.996094 34.695312 360.46875 42.640625 360.46875 L 71.464844 360.46875 L 71.464844 216.328125 L 172.363281 216.328125 L 172.363281 360.46875 L 201.191406 360.46875 L 201.191406 216.328125 L 302.089844 216.328125 L 302.089844 360.46875 L 330.917969 360.46875 C 338.863281 360.46875 345.332031 353.996094 345.332031 346.054688 L 345.332031 183.023438 C 347.449219 185.515625 350.800781 187.5 356.144531 187.5 C 370.558594 187.5 370.558594 173.085938 370.558594 173.085938 L 345.332031 101.015625 L 345.332031 86.601562 C 345.332031 78.660156 338.863281 72.1875 330.917969 72.1875 Z M 47.902344 115.429688 L 83.007812 115.429688 L 71.464844 173.085938 C 71.464844 184.027344 62.585938 192.90625 51.648438 192.90625 C 40.707031 192.90625 31.828125 184.027344 31.828125 173.085938 Z M 108.570312 115.429688 L 142.46875 115.429688 L 138.132812 173.085938 L 138.132812 174.886719 C 138.132812 185.828125 129.253906 194.707031 118.3125 194.707031 C 107.371094 194.707031 98.492188 185.828125 98.492188 174.886719 L 98.492188 173.085938 Z M 168.394531 115.429688 L 205.164062 115.429688 L 206.597656 173.085938 L 206.597656 174.886719 C 206.597656 185.828125 197.71875 194.707031 186.777344 194.707031 C 175.839844 194.707031 166.960938 185.828125 166.960938 174.886719 L 166.960938 173.085938 Z M 231.089844 115.429688 L 264.988281 115.429688 L 275.066406 173.085938 L 275.066406 174.886719 C 275.066406 185.828125 266.1875 194.707031 255.246094 194.707031 C 244.304688 194.707031 235.425781 185.828125 235.425781 174.886719 L 235.425781 173.085938 Z M 290.550781 115.429688 L 324.445312 115.429688 L 341.730469 173.085938 L 341.730469 174.886719 C 341.730469 185.828125 332.851562 194.707031 321.910156 194.707031 C 310.972656 194.707031 302.089844 185.828125 302.089844 174.886719 L 302.089844 173.085938 Z M 143.535156 273.984375 C 142.589844 273.984375 141.652344 274.078125 140.726562 274.261719 C 139.796875 274.445312 138.894531 274.71875 138.019531 275.082031 C 137.148438 275.445312 136.316406 275.886719 135.527344 276.414062 C 134.742188 276.9375 134.015625 277.535156 133.34375 278.207031 C 132.675781 278.875 132.078125 279.601562 131.550781 280.390625 C 131.027344 281.175781 130.582031 282.007812 130.21875 282.882812 C 129.859375 283.757812 129.585938 284.65625 129.398438 285.585938 C 129.214844 286.515625 129.121094 287.453125 129.121094 288.398438 C 129.121094 289.34375 129.214844 290.28125 129.398438 291.210938 C 129.585938 292.140625 129.859375 293.039062 130.21875 293.914062 C 130.582031 294.789062 131.027344 295.621094 131.550781 296.40625 C 132.078125 297.195312 132.675781 297.921875 133.34375 298.589844 C 134.015625 299.261719 134.742188 299.859375 135.527344 300.382812 C 136.316406 300.910156 137.148438 301.351562 138.019531 301.714844 C 138.894531 302.078125 139.796875 302.351562 140.726562 302.535156 C 141.652344 302.71875 142.589844 302.8125 143.535156 302.8125 C 144.484375 302.8125 145.421875 302.71875 146.347656 302.535156 C 147.277344 302.351562 148.179688 302.078125 149.054688 301.714844 C 149.925781 301.351562 150.757812 300.910156 151.546875 300.382812 C 152.332031 299.859375 153.058594 299.261719 153.730469 298.589844 C 154.398438 297.921875 154.996094 297.195312 155.523438 296.40625 C 156.046875 295.621094 156.492188 294.789062 156.855469 293.914062 C 157.214844 293.039062 157.488281 292.140625 157.675781 291.210938 C 157.859375 290.28125 157.949219 289.34375 157.949219 288.398438 C 157.949219 287.453125 157.859375 286.515625 157.675781 285.585938 C 157.488281 284.65625 157.214844 283.757812 156.855469 282.882812 C 156.492188 282.007812 156.046875 281.175781 155.523438 280.390625 C 154.996094 279.601562 154.398438 278.875 153.730469 278.207031 C 153.058594 277.535156 152.332031 276.9375 151.546875 276.414062 C 150.757812 275.886719 149.925781 275.445312 149.054688 275.082031 C 148.179688 274.71875 147.277344 274.445312 146.347656 274.261719 C 145.421875 274.078125 144.484375 273.984375 143.535156 273.984375 Z M 230.019531 273.984375 C 229.074219 273.984375 228.136719 274.078125 227.210938 274.261719 C 226.28125 274.445312 225.378906 274.71875 224.503906 275.082031 C 223.632812 275.445312 222.800781 275.886719 222.011719 276.414062 C 221.226562 276.9375 220.5 277.535156 219.828125 278.207031 C 219.160156 278.875 218.5625 279.601562 218.035156 280.390625 C 217.511719 281.175781 217.066406 282.007812 216.703125 282.882812 C 216.34375 283.757812 216.070312 284.65625 215.882812 285.585938 C 215.699219 286.515625 215.605469 287.453125 215.605469 288.398438 C 215.605469 289.34375 215.699219 290.28125 215.882812 291.210938 C 216.070312 292.140625 216.34375 293.039062 216.703125 293.914062 C 217.066406 294.789062 217.511719 295.621094 218.035156 296.40625 C 218.5625 297.195312 219.160156 297.921875 219.828125 298.589844 C 220.5 299.261719 221.226562 299.859375 222.011719 300.382812 C 222.800781 300.910156 223.632812 301.351562 224.503906 301.714844 C 225.378906 302.078125 226.28125 302.351562 227.210938 302.535156 C 228.136719 302.71875 229.074219 302.8125 230.019531 302.8125 C 230.96875 302.8125 231.90625 302.71875 232.832031 302.535156 C 233.761719 302.351562 234.664062 302.078125 235.539062 301.714844 C 236.410156 301.351562 237.242188 300.910156 238.03125 300.382812 C 238.816406 299.859375 239.542969 299.261719 240.214844 298.589844 C 240.882812 297.921875 241.480469 297.195312 242.007812 296.40625 C 242.53125 295.621094 242.976562 294.789062 243.339844 293.914062 C 243.699219 293.039062 243.972656 292.140625 244.160156 291.210938 C 244.34375 290.28125 244.433594 289.34375 244.433594 288.398438 C 244.433594 287.453125 244.34375 286.515625 244.160156 285.585938 C 243.972656 284.65625 243.699219 283.757812 243.339844 282.882812 C 242.976562 282.007812 242.53125 281.175781 242.007812 280.390625 C 241.480469 279.601562 240.882812 278.875 240.214844 278.207031 C 239.542969 277.535156 238.816406 276.9375 238.03125 276.414062 C 237.242188 275.886719 236.410156 275.445312 235.539062 275.082031 C 234.664062 274.71875 233.761719 274.445312 232.832031 274.261719 C 231.90625 274.078125 230.96875 273.984375 230.019531 273.984375 Z M 230.019531 273.984375 " fill-opacity="1" fill-rule="nonzero"/></g></svg>