<svg xmlns="http://www.w3.org/2000/svg" xmlns:xlink="http://www.w3.org/1999/xlink" width="500" zoomAndPan="magnify" viewBox="0 0 375 374.999991" height="500" preserveAspectRatio="xMidYMid meet" version="1.0"><path fill="#ff0e0e" d="M 48.910156 129.746094 C 7.40625 123.574219 0.980469 88.558594 0.226562 83.582031 C 0.164062 83.203125 0.226562 82.824219 0.414062 82.449219 L 1.484375 80.433594 C 1.925781 79.550781 3.058594 79.234375 3.878906 79.675781 L 35.9375 96.304688 C 63.898438 92.398438 60.6875 57.191406 60.6875 57.191406 L 28.566406 37.480469 C 27.875 37.039062 27.558594 36.15625 27.875 35.335938 L 28.566406 33.449219 C 28.757812 32.882812 29.195312 32.503906 29.765625 32.316406 C 35.496094 30.550781 68.558594 21.796875 86.320312 44.53125 C 89.53125 48.691406 91.800781 53.476562 93.25 58.578125 L 98.035156 75.960938 C 100.175781 83.832031 103.261719 91.390625 107.105469 98.507812 C 112.207031 108.019531 118.691406 116.773438 126.375 124.328125 L 163.726562 160.796875 L 135.445312 193.042969 L 89.910156 148.578125 C 83.171875 142.089844 75.046875 137.179688 66.167969 134.21875 L 60.6875 132.453125 C 56.847656 131.195312 52.941406 130.3125 48.910156 129.746094 Z M 271.675781 245.378906 C 267.644531 244.8125 263.738281 243.929688 259.898438 242.609375 L 254.480469 240.78125 C 245.601562 237.820312 237.476562 232.910156 230.738281 226.421875 L 208.566406 204.757812 L 181.042969 237.757812 L 194.269531 250.671875 C 201.953125 258.289062 208.441406 266.980469 213.542969 276.492188 C 217.382812 283.671875 220.40625 291.230469 222.613281 299.039062 L 227.460938 316.421875 C 228.847656 321.523438 231.113281 326.308594 234.390625 330.46875 C 252.148438 353.203125 285.214844 344.449219 290.945312 342.683594 C 291.511719 342.496094 291.953125 342.117188 292.144531 341.550781 L 292.835938 339.664062 C 293.152344 338.84375 292.835938 337.960938 292.144531 337.519531 L 260.023438 317.808594 C 260.023438 317.808594 256.8125 282.601562 284.773438 278.695312 L 316.832031 295.324219 C 317.714844 295.765625 318.785156 295.449219 319.226562 294.566406 L 320.296875 292.550781 C 320.484375 292.238281 320.546875 291.796875 320.484375 291.417969 C 319.664062 286.570312 313.179688 251.550781 271.675781 245.378906 Z M 249.316406 139.195312 L 232.75 125.210938 L 219.335938 113.875 L 171.472656 168.417969 L 143.191406 200.664062 L 45.824219 311.382812 C 40.28125 317.746094 41.039062 327.316406 47.460938 332.734375 L 59.679688 343.0625 C 66.042969 348.417969 75.550781 347.597656 80.90625 341.238281 L 173.359375 230.328125 L 200.882812 197.324219 Z M 356.699219 104.113281 C 354.304688 103.796875 348.132812 106.316406 344.292969 104.429688 C 343.472656 104.050781 342.78125 103.609375 342.148438 103.167969 L 323.886719 87.800781 L 316.578125 81.628906 L 317.585938 75.707031 L 317.777344 74.511719 L 315.066406 72.246094 C 314.816406 71.992188 314.5 71.742188 314.1875 71.488281 C 314.125 71.488281 314.125 71.425781 313.996094 71.363281 C 313.933594 71.300781 313.933594 71.300781 313.871094 71.238281 C 313.808594 71.175781 313.746094 71.175781 313.746094 71.109375 C 313.746094 71.109375 313.746094 71.109375 313.683594 71.109375 C 313.429688 70.921875 313.050781 70.671875 312.613281 70.355469 C 310.09375 68.527344 305.367188 65.128906 304.800781 64.75 C 266.761719 36.597656 227.839844 23.625 194.019531 30.238281 C 179.722656 33.007812 166.371094 39.304688 154.339844 49.320312 C 153.523438 50.011719 152.640625 50.769531 151.820312 51.523438 C 157.867188 51.523438 163.851562 51.710938 169.769531 52.152344 C 181.925781 53.035156 193.828125 55.113281 205.984375 59.144531 C 212.472656 61.285156 219.023438 63.996094 225.699219 67.394531 C 229.476562 69.597656 232.941406 72.054688 236.027344 74.828125 C 238.796875 77.28125 238.230469 82.886719 236.910156 86.289062 L 236.910156 86.351562 C 232.3125 93.910156 228.65625 101.214844 224.4375 107.765625 L 254.542969 133.019531 C 258.449219 129.746094 260.589844 128.109375 263.109375 126.03125 C 264.746094 124.707031 266.574219 123.511719 268.523438 122.566406 C 278.289062 117.96875 289.5625 119.480469 297.496094 126.03125 C 298.503906 126.847656 299.511719 127.730469 300.519531 128.613281 C 303.730469 131.445312 308.203125 135.855469 312.359375 142.40625 L 313.304688 155.632812 C 321.304688 162.054688 321.554688 162.433594 330.625 170.054688 L 357.515625 138.691406 L 374.835938 118.597656 Z M 356.699219 104.113281 " fill-opacity="1" fill-rule="nonzero"/></svg>