<svg xmlns="http://www.w3.org/2000/svg" xmlns:xlink="http://www.w3.org/1999/xlink" width="500" zoomAndPan="magnify" viewBox="0 0 375 374.999991" height="500" preserveAspectRatio="xMidYMid meet" version="1.0"><defs><clipPath id="c2554eb29d"><path d="M 0 14.765625 L 375 14.765625 L 375 360.515625 L 0 360.515625 Z M 0 14.765625 " clip-rule="nonzero"/></clipPath></defs><g clip-path="url(#c2554eb29d)"><path fill="#ff0e0e" d="M 188.097656 99.941406 C 259.949219 99.941406 318.179688 158.175781 318.179688 230.023438 C 318.179688 301.875 259.949219 360.109375 188.097656 360.109375 C 116.246094 360.109375 58.015625 301.875 58.015625 230.023438 C 58.015625 158.175781 116.246094 99.941406 188.097656 99.941406 Z M 271.394531 313.042969 C 292.59375 291.773438 305.695312 262.429688 305.695312 230.023438 C 305.695312 165.070312 253.050781 112.425781 188.097656 112.425781 C 123.144531 112.425781 70.5 165.070312 70.5 230.023438 C 70.5 262.429688 83.601562 291.773438 104.800781 313.042969 C 114.945312 276.5625 148.40625 249.78125 188.097656 249.78125 C 227.789062 249.78125 261.25 276.5625 271.394531 313.042969 Z M 188.097656 241.980469 C 164.035156 241.980469 144.363281 222.304688 144.363281 198.246094 C 144.363281 174.183594 164.035156 154.511719 188.097656 154.511719 C 212.160156 154.511719 231.832031 174.183594 231.832031 198.246094 C 231.832031 222.304688 212.160156 241.980469 188.097656 241.980469 Z M 185.550781 16.742188 C 185.910156 15.640625 186.9375 14.890625 188.097656 14.890625 C 189.257812 14.890625 190.285156 15.640625 190.644531 16.742188 L 196.121094 33.59375 C 196.476562 34.699219 197.507812 35.445312 198.664062 35.445312 L 216.386719 35.445312 C 217.546875 35.445312 218.574219 36.191406 218.933594 37.292969 C 219.289062 38.398438 218.898438 39.605469 217.957031 40.289062 L 203.625 50.703125 C 202.6875 51.386719 202.292969 52.59375 202.652344 53.699219 L 208.125 70.550781 C 208.484375 71.652344 208.09375 72.859375 207.15625 73.542969 C 206.214844 74.226562 204.945312 74.226562 204.007812 73.542969 L 189.671875 63.128906 C 188.734375 62.445312 187.460938 62.445312 186.523438 63.128906 L 172.1875 73.542969 C 171.25 74.226562 169.980469 74.226562 169.039062 73.542969 C 168.101562 72.859375 167.710938 71.652344 168.066406 70.550781 L 173.542969 53.699219 C 173.902344 52.59375 173.507812 51.386719 172.570312 50.703125 L 158.234375 40.289062 C 157.296875 39.605469 156.902344 38.398438 157.261719 37.292969 C 157.621094 36.191406 158.648438 35.445312 159.808594 35.445312 L 177.527344 35.445312 C 178.6875 35.445312 179.714844 34.699219 180.074219 33.59375 Z M 79.25 46.589844 C 79.011719 45.457031 79.527344 44.292969 80.53125 43.714844 C 81.535156 43.132812 82.800781 43.269531 83.660156 44.042969 L 96.828125 55.898438 C 97.691406 56.675781 98.957031 56.808594 99.960938 56.230469 L 115.304688 47.371094 C 116.308594 46.789062 117.574219 46.921875 118.433594 47.699219 C 119.296875 48.476562 119.5625 49.71875 119.089844 50.777344 L 111.882812 66.964844 C 111.410156 68.023438 111.675781 69.269531 112.539062 70.042969 L 125.707031 81.898438 C 126.566406 82.675781 126.832031 83.917969 126.359375 84.980469 C 125.886719 86.039062 124.789062 86.675781 123.632812 86.554688 L 106.011719 84.699219 C 104.859375 84.582031 103.757812 85.214844 103.285156 86.273438 L 96.078125 102.460938 C 95.605469 103.523438 94.507812 104.15625 93.351562 104.035156 C 92.199219 103.914062 91.253906 103.0625 91.011719 101.929688 L 87.328125 84.597656 C 87.089844 83.464844 86.144531 82.613281 84.988281 82.492188 L 67.367188 80.640625 C 66.214844 80.519531 65.269531 79.667969 65.027344 78.53125 C 64.789062 77.398438 65.304688 76.238281 66.308594 75.65625 L 81.652344 66.796875 C 82.660156 66.21875 83.175781 65.058594 82.933594 63.921875 Z M 9.597656 158.660156 C 8.5625 159.183594 7.308594 158.988281 6.488281 158.167969 C 5.667969 157.34375 5.46875 156.089844 5.996094 155.058594 L 14.039062 139.269531 C 14.566406 138.234375 14.367188 136.980469 13.546875 136.160156 L 1.019531 123.628906 C 0.199219 122.808594 0 121.554688 0.527344 120.523438 C 1.050781 119.488281 2.183594 118.910156 3.332031 119.09375 L 20.832031 121.863281 C 21.976562 122.046875 23.109375 121.46875 23.636719 120.433594 L 31.679688 104.648438 C 32.207031 103.613281 33.339844 103.035156 34.484375 103.21875 C 35.632812 103.402344 36.53125 104.296875 36.710938 105.445312 L 39.484375 122.945312 C 39.664062 124.089844 40.5625 124.988281 41.707031 125.171875 L 59.210938 127.941406 C 60.355469 128.125 61.253906 129.023438 61.4375 130.167969 C 61.617188 131.316406 61.039062 132.445312 60.007812 132.972656 L 44.21875 141.019531 C 43.183594 141.546875 42.609375 142.675781 42.789062 143.824219 L 45.5625 161.324219 C 45.742188 162.46875 45.167969 163.601562 44.132812 164.128906 C 43.097656 164.65625 41.84375 164.457031 41.023438 163.636719 L 28.492188 151.105469 C 27.675781 150.285156 26.417969 150.085938 25.382812 150.613281 Z M 292.53125 44.042969 C 293.394531 43.269531 294.660156 43.132812 295.664062 43.714844 C 296.667969 44.292969 297.183594 45.457031 296.945312 46.589844 L 293.261719 63.921875 C 293.019531 65.058594 293.535156 66.21875 294.539062 66.796875 L 309.886719 75.65625 C 310.890625 76.238281 311.40625 77.398438 311.164062 78.53125 C 310.925781 79.667969 309.980469 80.519531 308.824219 80.640625 L 291.203125 82.492188 C 290.050781 82.613281 289.105469 83.464844 288.863281 84.597656 L 285.179688 101.929688 C 284.941406 103.0625 283.996094 103.914062 282.839844 104.035156 C 281.6875 104.15625 280.585938 103.523438 280.117188 102.460938 L 272.910156 86.273438 C 272.4375 85.214844 271.335938 84.582031 270.183594 84.699219 L 252.5625 86.554688 C 251.40625 86.675781 250.304688 86.039062 249.835938 84.980469 C 249.363281 83.917969 249.628906 82.675781 250.488281 81.898438 L 263.65625 70.042969 C 264.519531 69.269531 264.78125 68.023438 264.3125 66.964844 L 257.105469 50.777344 C 256.632812 49.71875 256.898438 48.476562 257.757812 47.699219 C 258.621094 46.921875 259.882812 46.789062 260.890625 47.371094 L 276.234375 56.230469 C 277.238281 56.808594 278.503906 56.675781 279.363281 55.898438 Z M 371.53125 121.179688 C 372.667969 120.9375 373.828125 121.453125 374.40625 122.457031 C 374.988281 123.464844 374.855469 124.726562 374.078125 125.589844 L 362.222656 138.757812 C 361.445312 139.621094 361.3125 140.882812 361.894531 141.886719 L 370.753906 157.230469 C 371.332031 158.238281 371.199219 159.5 370.421875 160.363281 C 369.648438 161.226562 368.402344 161.488281 367.34375 161.015625 L 351.15625 153.8125 C 350.097656 153.339844 348.855469 153.601562 348.078125 154.464844 L 336.222656 167.632812 C 335.445312 168.496094 334.203125 168.757812 333.140625 168.289062 C 332.082031 167.816406 331.449219 166.714844 331.566406 165.5625 L 333.421875 147.9375 C 333.542969 146.785156 332.90625 145.683594 331.847656 145.214844 L 315.660156 138.007812 C 314.601562 137.535156 313.964844 136.433594 314.085938 135.28125 C 314.207031 134.125 315.058594 133.183594 316.191406 132.941406 L 333.523438 129.257812 C 334.660156 129.015625 335.507812 128.070312 335.628906 126.917969 L 337.480469 109.296875 C 337.605469 108.140625 338.453125 107.199219 339.589844 106.957031 C 340.722656 106.714844 341.882812 107.230469 342.464844 108.238281 L 351.324219 123.582031 C 351.902344 124.585938 353.066406 125.101562 354.199219 124.863281 Z M 371.53125 121.179688 " fill-opacity="1" fill-rule="evenodd"/></g></svg>