<svg xmlns="http://www.w3.org/2000/svg" xmlns:xlink="http://www.w3.org/1999/xlink" width="500" zoomAndPan="magnify" viewBox="0 0 375 374.999991" height="500" preserveAspectRatio="xMidYMid meet" version="1.0"><defs><clipPath id="7625e5344d"><path d="M 36 0 L 371.25 0 L 371.25 375 L 36 375 Z M 36 0 " clip-rule="nonzero"/></clipPath></defs><g clip-path="url(#7625e5344d)"><path fill="#ff0e0e" d="M 187.640625 0 L 339.269531 64.984375 L 339.269531 187.589844 C 339.269531 206.246094 336.492188 224.015625 331.328125 240.609375 C 324.832031 238.535156 317.953125 237.320312 310.824219 237.09375 C 316.082031 221.5 318.921875 204.84375 318.921875 187.589844 L 318.921875 82.523438 C 318.921875 79.789062 317.160156 77.460938 314.714844 76.617188 L 190.082031 23.203125 C 188.457031 22.511719 186.707031 22.5625 185.199219 23.203125 L 60.171875 76.785156 C 57.800781 77.796875 56.378906 80.097656 56.375 82.523438 L 56.363281 82.523438 L 56.363281 187.589844 C 56.363281 225.597656 70.132812 260.703125 93.222656 287.976562 C 116.433594 315.382812 149.0625 334.863281 186.589844 341.402344 C 187.375 341.535156 188.148438 341.519531 188.882812 341.367188 C 205.109375 338.519531 220.417969 333.253906 234.441406 325.96875 C 235.679688 332.6875 237.804688 339.09375 240.699219 345.0625 C 224.367188 353.109375 206.539062 358.957031 187.640625 362.253906 C 100.449219 347.050781 36.011719 277.582031 36.011719 187.589844 L 36.011719 64.984375 Z M 308.417969 249.550781 C 273.777344 249.550781 245.695312 277.632812 245.695312 312.277344 C 245.695312 346.917969 273.777344 375 308.417969 375 C 343.0625 375 371.144531 346.917969 371.144531 312.277344 C 371.144531 277.632812 343.0625 249.550781 308.417969 249.550781 Z M 343.320312 299.109375 C 326.78125 315.8125 321.804688 321.015625 305.1875 337.632812 C 301.804688 341.015625 296.320312 341.015625 292.9375 337.632812 L 273.542969 318.238281 C 270.160156 314.855469 270.160156 309.371094 273.542969 305.988281 C 276.925781 302.605469 282.410156 302.605469 285.792969 305.988281 L 299.046875 319.246094 L 331.070312 286.925781 C 334.4375 283.542969 339.90625 283.527344 343.289062 286.894531 C 346.667969 290.257812 346.683594 295.726562 343.320312 299.109375 Z M 187.640625 35.722656 L 68.863281 86.628906 L 68.863281 187.589844 C 68.863281 222.566406 81.519531 254.851562 102.746094 279.917969 C 123.890625 304.890625 153.539062 322.710938 187.640625 328.910156 C 204 325.9375 219.335938 320.289062 233.195312 312.457031 C 233.195312 312.398438 233.195312 312.335938 233.195312 312.273438 C 233.195312 274.519531 261.023438 243.253906 297.285156 237.871094 C 303.199219 222.183594 306.421875 205.226562 306.421875 187.589844 L 306.421875 86.628906 Z M 111.167969 242.746094 L 111.167969 149.441406 L 134.628906 149.441406 L 134.628906 242.746094 Z M 268.027344 198.753906 L 258.554688 198.753906 C 265.980469 198.753906 272.054688 204.828125 272.054688 212.25 C 272.054688 219.675781 265.980469 225.75 258.554688 225.75 L 250.503906 225.75 C 257.929688 225.75 264.003906 231.824219 264.003906 239.25 C 264.003906 246.671875 257.929688 252.746094 250.503906 252.746094 L 220.875 252.746094 C 187.023438 258.617188 167.414062 262.175781 147.128906 242.746094 L 147.128906 149.441406 C 163.695312 136.996094 184.84375 126.332031 184.84375 102.789062 L 184.84375 74.464844 C 203.53125 74.464844 218.820312 89.746094 218.820312 108.433594 L 218.820312 130.40625 C 218.28125 134.308594 216.105469 139.714844 212.039062 144.757812 L 262.34375 144.757812 C 269.765625 144.757812 275.839844 150.835938 275.839844 158.257812 C 275.839844 165.683594 269.765625 171.757812 262.34375 171.757812 L 268.027344 171.757812 C 275.453125 171.757812 281.527344 177.832031 281.527344 185.253906 C 281.527344 192.679688 275.453125 198.753906 268.027344 198.753906 Z M 268.027344 198.753906 " fill-opacity="1" fill-rule="evenodd"/></g></svg>