<svg xmlns="http://www.w3.org/2000/svg" xmlns:xlink="http://www.w3.org/1999/xlink" width="250" zoomAndPan="magnify" viewBox="0 0 187.5 187.499992" height="250" preserveAspectRatio="xMidYMid meet" version="1.0"><defs><clipPath id="00f70cdd27"><path d="M 9 99 L 178 99 L 178 150.832031 L 9 150.832031 Z M 9 99 " clip-rule="nonzero"/></clipPath><clipPath id="22abfe37fa"><path d="M 9 31.152344 L 178 31.152344 L 178 102 L 9 102 Z M 9 31.152344 " clip-rule="nonzero"/></clipPath><clipPath id="d41d6215b2"><path d="M 124 39 L 187 39 L 187 144 L 124 144 Z M 124 39 " clip-rule="nonzero"/></clipPath></defs><g clip-path="url(#00f70cdd27)"><path fill="#b80000" d="M 176.679688 148.886719 L 117.992188 100.15625 C 116.277344 98.734375 113.792969 98.734375 112.078125 100.15625 L 96.265625 113.285156 C 94.671875 114.605469 92.367188 114.605469 90.777344 113.285156 L 74.964844 100.15625 C 73.25 98.734375 70.765625 98.734375 69.046875 100.15625 L 10.359375 148.886719 C 9.550781 149.558594 10.027344 150.871094 11.078125 150.871094 L 175.964844 150.871094 C 177.015625 150.871094 177.488281 149.558594 176.679688 148.886719 " fill-opacity="1" fill-rule="nonzero"/></g><path fill="#b80000" d="M 61.714844 89.15625 L 1.863281 39.460938 C 1.132812 38.851562 0.0234375 39.371094 0.0234375 40.320312 L 0.0234375 141.882812 C 0.0234375 142.835938 1.132812 143.355469 1.863281 142.75 L 61.714844 93.050781 C 62.9375 92.039062 62.9375 90.167969 61.714844 89.15625 " fill-opacity="1" fill-rule="nonzero"/><g clip-path="url(#22abfe37fa)"><path fill="#b80000" d="M 10.363281 33.320312 L 91.273438 100.503906 C 92.578125 101.585938 94.464844 101.585938 95.765625 100.503906 L 176.679688 33.320312 C 177.488281 32.648438 177.015625 31.335938 175.964844 31.335938 L 11.078125 31.335938 C 10.027344 31.335938 9.550781 32.648438 10.363281 33.320312 " fill-opacity="1" fill-rule="nonzero"/></g><g clip-path="url(#d41d6215b2)"><path fill="#b80000" d="M 185.179688 39.460938 L 125.324219 89.15625 C 124.105469 90.167969 124.105469 92.039062 125.324219 93.050781 L 185.179688 142.75 C 185.910156 143.355469 187.015625 142.835938 187.015625 141.886719 L 187.015625 40.320312 C 187.015625 39.371094 185.910156 38.851562 185.179688 39.460938 " fill-opacity="1" fill-rule="nonzero"/></g></svg>