<svg xmlns="http://www.w3.org/2000/svg" xmlns:xlink="http://www.w3.org/1999/xlink" width="250" zoomAndPan="magnify" viewBox="0 0 187.5 187.499992" height="250" preserveAspectRatio="xMidYMid meet" version="1.0"><defs><clipPath id="8f34232beb"><path d="M 28.632812 0 L 158.039062 0 L 158.039062 187 L 28.632812 187 Z M 28.632812 0 " clip-rule="nonzero"/></clipPath></defs><g clip-path="url(#8f34232beb)"><path fill="#b80000" d="M 93.503906 -0.0234375 C 57.699219 -0.0234375 28.683594 28.996094 28.683594 64.796875 C 28.683594 70.753906 29.5 76.515625 31.007812 81.992188 C 32.3125 86.757812 34.140625 91.316406 36.445312 95.578125 C 37.003906 96.605469 37.589844 97.621094 38.199219 98.617188 L 87.066406 183.265625 C 87.171875 183.445312 87.265625 183.636719 87.382812 183.8125 C 88.726562 185.753906 90.964844 187.023438 93.5 187.023438 C 96.039062 187.023438 98.285156 185.738281 99.625 183.789062 L 99.832031 183.429688 L 148.792969 98.632812 L 150.558594 95.570312 C 152.863281 91.308594 154.6875 86.753906 155.996094 81.992188 C 157.5 76.515625 158.320312 70.753906 158.320312 64.796875 C 158.320312 28.996094 129.300781 -0.0234375 93.503906 -0.0234375 Z M 93.5 91.972656 C 78.484375 91.972656 66.316406 79.800781 66.316406 64.796875 C 66.316406 49.785156 78.484375 37.613281 93.5 37.613281 C 108.507812 37.613281 120.671875 49.785156 120.671875 64.796875 C 120.671875 79.800781 108.507812 91.972656 93.5 91.972656 Z M 93.5 91.972656 " fill-opacity="1" fill-rule="nonzero"/></g></svg>