<svg xmlns="http://www.w3.org/2000/svg" xmlns:xlink="http://www.w3.org/1999/xlink" width="250" zoomAndPan="magnify" viewBox="0 0 187.5 187.499992" height="250" preserveAspectRatio="xMidYMid meet" version="1.0"><path fill="#b80000" d="M 29.445312 7.949219 C 26.945312 7.824219 24.507812 8.148438 22.128906 8.921875 C 19.75 9.699219 17.585938 10.875 15.644531 12.453125 C 13.121094 14.808594 10.878906 17.402344 8.910156 20.238281 C 6.941406 23.074219 5.292969 26.085938 3.96875 29.269531 C 2.644531 32.457031 1.667969 35.746094 1.042969 39.140625 C 0.421875 42.535156 0.164062 45.957031 0.269531 49.40625 C 0.585938 53.628906 1.222656 57.804688 2.171875 61.933594 C 3.121094 66.058594 4.375 70.09375 5.933594 74.03125 C 7.492188 77.96875 9.335938 81.765625 11.46875 85.425781 C 13.601562 89.082031 15.996094 92.5625 18.652344 95.859375 L 19.785156 97.5625 C 24.5625 105.019531 29.835938 112.105469 35.605469 118.820312 C 41.378906 125.539062 47.589844 131.820312 54.242188 137.664062 C 60.894531 143.507812 67.925781 148.859375 75.328125 153.714844 C 82.730469 158.574219 90.4375 162.890625 98.449219 166.667969 C 105.695312 170.1875 113.195312 173.042969 120.949219 175.234375 C 128.699219 177.425781 136.585938 178.921875 144.601562 179.71875 C 147.515625 179.699219 150.382812 179.328125 153.207031 178.605469 C 164.5625 176.246094 178.816406 167.75 182.113281 158.292969 C 183.390625 155.210938 184.289062 152.019531 184.8125 148.722656 C 185.335938 145.429688 185.46875 142.117188 185.207031 138.789062 C 183.769531 137.964844 182.296875 137.21875 180.78125 136.546875 L 178.003906 135.121094 C 165.035156 128.914062 149.09375 121.089844 145.9375 119.835938 C 145.011719 119.5625 144.066406 119.410156 143.101562 119.382812 C 142.222656 119.375 141.402344 119.59375 140.644531 120.042969 C 139.886719 120.492188 139.300781 121.105469 138.886719 121.886719 L 137.035156 124.535156 C 133.535156 129.636719 129.773438 134.539062 125.753906 139.242188 C 125.234375 139.746094 124.679688 140.210938 124.09375 140.632812 C 123.503906 141.054688 122.890625 141.433594 122.246094 141.765625 C 121.601562 142.097656 120.9375 142.378906 120.253906 142.613281 C 119.570312 142.847656 118.871094 143.03125 118.160156 143.164062 C 117.449219 143.292969 116.730469 143.375 116.007812 143.398438 C 115.28125 143.425781 114.5625 143.398438 113.84375 143.316406 C 113.121094 143.238281 112.414062 143.105469 111.714844 142.921875 C 111.011719 142.734375 110.332031 142.5 109.664062 142.214844 L 108.238281 141.566406 C 101.230469 138.75 94.53125 135.332031 88.132812 131.316406 C 81.738281 127.296875 75.75 122.742188 70.171875 117.652344 C 59.359375 107.691406 50.222656 96.378906 42.765625 83.714844 C 42.40625 83.136719 42.101562 82.527344 41.851562 81.894531 C 41.597656 81.261719 41.40625 80.613281 41.269531 79.945312 C 41.132812 79.277344 41.058594 78.601562 41.039062 77.921875 C 41.023438 77.242188 41.066406 76.5625 41.167969 75.890625 C 41.269531 75.214844 41.433594 74.558594 41.652344 73.910156 C 41.871094 73.265625 42.144531 72.644531 42.472656 72.050781 C 42.800781 71.453125 43.179688 70.890625 43.609375 70.359375 C 44.039062 69.828125 44.507812 69.34375 45.023438 68.894531 C 46.382812 67.152344 47.875 65.53125 49.496094 64.03125 C 50.320312 62.929688 51.351562 62.023438 52.21875 60.957031 C 54.148438 59.011719 55.738281 56.820312 56.992188 54.382812 C 57.242188 53.503906 57.304688 52.609375 57.175781 51.703125 C 57.046875 50.796875 56.738281 49.957031 56.25 49.183594 C 55.324219 47.5 51.527344 37.914062 45.914062 24.585938 L 41.503906 13.628906 C 39.234375 8.136719 38.566406 8.070312 34.6875 8.070312 L 33.34375 8.070312 C 32.195312 8.003906 30.769531 7.949219 29.445312 7.949219 Z M 29.445312 7.949219 " fill-opacity="1" fill-rule="nonzero"/></svg>