<svg xmlns="http://www.w3.org/2000/svg" xmlns:xlink="http://www.w3.org/1999/xlink" width="500" zoomAndPan="magnify" viewBox="0 0 375 374.999991" height="500" preserveAspectRatio="xMidYMid meet" version="1.0"><defs><clipPath id="d6528a2872"><path d="M 0 25.3125 L 375 25.3125 L 375 350 L 0 350 Z M 0 25.3125 " clip-rule="nonzero"/></clipPath></defs><g clip-path="url(#d6528a2872)"><path fill="#ffffff" d="M 343.460938 337.136719 L 366.007812 337.136719 C 369.464844 337.136719 372.273438 339.945312 372.273438 343.402344 C 372.273438 346.859375 369.464844 349.667969 366.007812 349.667969 L 9.070312 349.667969 C 5.613281 349.667969 2.804688 346.859375 2.804688 343.402344 C 2.804688 339.945312 5.613281 337.136719 9.070312 337.136719 L 31.617188 337.136719 L 31.617188 186.375 C 36.410156 187.617188 41.433594 188.277344 46.609375 188.277344 C 65.691406 188.277344 82.695312 179.292969 93.59375 165.324219 C 104.472656 179.292969 121.453125 188.277344 140.539062 188.277344 C 159.675781 188.277344 176.671875 179.292969 187.554688 165.320312 C 198.453125 179.292969 215.457031 188.277344 234.539062 188.277344 C 253.625 188.277344 270.605469 179.292969 281.484375 165.324219 C 292.382812 179.292969 309.386719 188.277344 328.46875 188.277344 C 333.644531 188.277344 338.667969 187.617188 343.460938 186.375 Z M 233.316406 337.136719 L 319.132812 337.136719 L 319.132812 217.121094 C 319.132812 212.71875 315.65625 209.074219 311.386719 209.074219 L 240.992188 209.074219 C 236.71875 209.074219 233.316406 212.71875 233.316406 217.121094 Z M 55.152344 267.855469 L 210.890625 267.855469 L 210.890625 205.203125 C 210.890625 202.308594 208.542969 199.964844 205.648438 199.964844 L 60.394531 199.964844 C 57.503906 199.964844 55.152344 202.308594 55.152344 205.203125 Z M 210.890625 281.1875 L 55.152344 281.1875 L 55.152344 299.511719 C 55.152344 300.90625 55.707031 302.238281 56.691406 303.222656 C 57.675781 304.207031 59.007812 304.757812 60.398438 304.757812 L 205.644531 304.757812 C 207.035156 304.757812 208.367188 304.207031 209.351562 303.222656 C 210.335938 302.238281 210.890625 300.90625 210.890625 299.511719 Z M 2.875 122.558594 L 51.390625 29.535156 C 52.765625 26.855469 55.300781 25.332031 58.269531 25.332031 L 114.363281 25.332031 L 88.78125 122.558594 Z M 127.105469 25.332031 L 181.273438 25.332031 L 181.273438 122.558594 L 101.734375 122.558594 L 126.898438 26.925781 C 127.039062 26.394531 127.105469 25.859375 127.105469 25.332031 Z M 193.804688 25.332031 L 247.972656 25.332031 C 247.972656 25.859375 248.039062 26.394531 248.179688 26.925781 L 273.34375 122.558594 L 193.804688 122.558594 Z M 260.714844 25.332031 L 316.882812 25.332031 C 319.777344 25.332031 322.3125 26.855469 323.6875 29.535156 L 372.203125 122.558594 L 286.296875 122.558594 Z M 375.054688 135.085938 C 371.984375 158.046875 352.269531 175.75 328.46875 175.75 C 304.667969 175.75 284.953125 158.046875 281.882812 135.085938 Z M 281.054688 135.085938 C 277.992188 158.046875 258.34375 175.75 234.539062 175.75 C 210.738281 175.75 191.023438 158.046875 187.953125 135.085938 Z M 187.125 135.085938 C 184.0625 158.046875 164.40625 175.75 140.539062 175.75 C 116.734375 175.75 97.085938 158.046875 94.023438 135.085938 Z M 93.195312 135.085938 C 90.125 158.046875 70.410156 175.75 46.609375 175.75 C 22.808594 175.75 3.09375 158.046875 0.0234375 135.085938 Z M 93.195312 135.085938 " fill-opacity="1" fill-rule="evenodd"/></g></svg>