<svg xmlns="http://www.w3.org/2000/svg" xmlns:xlink="http://www.w3.org/1999/xlink" width="500" zoomAndPan="magnify" viewBox="0 0 375 374.999991" height="500" preserveAspectRatio="xMidYMid meet" version="1.0"><defs><clipPath id="172b3915d5"><path d="M 53.851562 0 L 312 0 L 312 375 L 53.851562 375 Z M 53.851562 0 " clip-rule="nonzero"/></clipPath></defs><path fill="#ff0e0e" d="M 352.679688 290.039062 L 343.890625 290.039062 L 343.890625 278.320312 C 343.890625 271.875 338.617188 266.601562 332.171875 266.601562 L 329.242188 266.601562 L 329.242188 258.691406 C 329.242188 244.042969 332.757812 230.566406 338.910156 219.726562 C 342.132812 214.453125 343.890625 208.300781 343.890625 201.855469 C 343.890625 191.894531 339.496094 182.226562 332.171875 175.78125 C 324.847656 169.042969 314.59375 165.820312 304.632812 166.992188 C 288.226562 168.75 275.335938 181.933594 273.578125 198.339844 C 272.992188 205.371094 274.164062 212.109375 277.386719 218.261719 C 284.417969 231.445312 287.933594 244.628906 287.933594 257.519531 L 287.933594 266.308594 L 285.003906 266.308594 C 278.558594 266.308594 273.285156 271.582031 273.285156 278.027344 L 273.285156 289.746094 L 264.496094 289.746094 C 254.828125 289.746094 246.917969 297.65625 246.917969 307.324219 L 246.917969 319.042969 C 246.917969 322.265625 249.554688 324.902344 252.777344 324.902344 L 364.105469 324.902344 C 367.328125 324.902344 369.964844 322.265625 369.964844 319.042969 L 369.964844 307.324219 C 370.257812 297.949219 362.347656 290.039062 352.679688 290.039062 Z M 332.171875 290.039062 L 285.296875 290.039062 L 285.296875 278.320312 L 332.171875 278.320312 Z M 332.171875 290.039062 " fill-opacity="1" fill-rule="nonzero"/><path fill="#ff0e0e" d="M 355.609375 331.054688 L 261.859375 331.054688 C 258.636719 331.054688 256 333.691406 256 336.914062 C 256 340.136719 258.636719 342.773438 261.859375 342.773438 L 355.609375 342.773438 C 358.832031 342.773438 361.46875 340.136719 361.46875 336.914062 C 361.46875 333.691406 358.832031 331.054688 355.609375 331.054688 Z M 355.609375 331.054688 " fill-opacity="1" fill-rule="nonzero"/><g clip-path="url(#172b3915d5)"><path fill="#ff0e0e" d="M 244.28125 336.914062 C 244.28125 336.035156 244.28125 335.449219 244.574219 334.570312 C 239.300781 331.640625 235.492188 325.78125 235.492188 319.335938 L 235.492188 307.617188 C 235.492188 292.382812 247.210938 279.785156 261.859375 278.320312 C 261.859375 268.359375 268.011719 260.15625 276.507812 256.640625 C 276.507812 251.367188 275.628906 245.800781 273.871094 240.234375 L 84.613281 240.234375 C 81.390625 240.234375 78.753906 237.597656 78.753906 234.375 C 78.753906 231.152344 81.390625 228.515625 84.613281 228.515625 L 269.476562 228.515625 C 268.890625 227.050781 268.011719 225.585938 267.132812 224.121094 C 265.960938 221.777344 264.789062 219.433594 264.203125 216.796875 L 84.613281 216.796875 C 81.390625 216.796875 78.753906 214.160156 78.753906 210.9375 C 78.753906 207.714844 81.390625 205.078125 84.613281 205.078125 L 261.859375 205.078125 C 261.566406 202.441406 261.859375 200.097656 261.859375 197.460938 C 261.859375 195.996094 262.152344 194.53125 262.445312 193.359375 L 144.085938 193.359375 C 140.863281 193.359375 138.226562 190.722656 138.226562 187.5 C 138.226562 184.277344 140.863281 181.640625 144.085938 181.640625 L 266.546875 181.640625 C 268.597656 177.246094 271.527344 173.4375 274.75 169.921875 L 84.613281 169.921875 C 81.390625 169.921875 78.753906 167.285156 78.753906 164.0625 C 78.753906 160.839844 81.390625 158.203125 84.613281 158.203125 L 280.902344 158.203125 C 283.246094 158.203125 285.003906 159.375 285.882812 161.132812 C 291.15625 158.203125 297.015625 156.152344 303.460938 155.566406 C 305.21875 155.273438 306.976562 155.273438 308.734375 155.273438 C 309.320312 155.273438 310.199219 155.273438 310.785156 155.273438 C 311.078125 155.273438 311.371094 155.273438 311.664062 155.273438 L 311.664062 23.4375 C 311.664062 10.546875 301.117188 0 288.226562 0 L 77.289062 0 C 64.398438 0 53.851562 10.546875 53.851562 23.4375 L 53.851562 351.5625 C 53.851562 364.453125 64.398438 375 77.289062 375 L 288.226562 375 C 300.238281 375 309.90625 365.917969 311.371094 354.492188 L 261.859375 354.492188 C 252.191406 354.492188 244.28125 346.582031 244.28125 336.914062 Z M 85.492188 41.015625 L 159.613281 41.015625 C 162.835938 41.015625 165.472656 43.652344 165.472656 46.875 C 165.472656 50.097656 162.835938 52.734375 159.613281 52.734375 L 85.492188 52.734375 C 82.269531 52.734375 79.632812 50.097656 79.632812 46.875 C 79.632812 43.652344 82.269531 41.015625 85.492188 41.015625 Z M 84.613281 64.453125 L 280.902344 64.453125 C 284.125 64.453125 286.761719 67.089844 286.761719 70.3125 C 286.761719 73.535156 284.125 76.171875 280.902344 76.171875 L 84.613281 76.171875 C 81.390625 76.171875 78.753906 73.535156 78.753906 70.3125 C 78.753906 67.089844 81.390625 64.453125 84.613281 64.453125 Z M 84.613281 87.890625 L 280.902344 87.890625 C 284.125 87.890625 286.761719 90.527344 286.761719 93.75 C 286.761719 96.972656 284.125 99.609375 280.902344 99.609375 L 84.613281 99.609375 C 81.390625 99.609375 78.753906 96.972656 78.753906 93.75 C 78.753906 90.527344 81.390625 87.890625 84.613281 87.890625 Z M 285.882812 117.1875 C 285.882812 120.410156 283.246094 123.046875 280.023438 123.046875 L 144.085938 123.046875 C 140.863281 123.046875 138.226562 120.410156 138.226562 117.1875 C 138.226562 113.964844 140.863281 111.328125 144.085938 111.328125 L 279.730469 111.328125 C 283.246094 111.328125 285.882812 113.964844 285.882812 117.1875 Z M 84.613281 134.765625 L 280.902344 134.765625 C 284.125 134.765625 286.761719 137.402344 286.761719 140.625 C 286.761719 143.847656 284.125 146.484375 280.902344 146.484375 L 84.613281 146.484375 C 81.390625 146.484375 78.753906 143.847656 78.753906 140.625 C 78.753906 137.402344 81.390625 134.765625 84.613281 134.765625 Z M 222.308594 316.40625 C 222.308594 326.074219 214.398438 333.984375 204.730469 333.984375 L 157.855469 333.984375 C 148.1875 333.984375 140.277344 326.074219 140.277344 316.40625 L 140.277344 275.390625 C 140.277344 265.722656 148.1875 257.8125 157.855469 257.8125 L 204.730469 257.8125 C 209.125 257.8125 213.226562 259.570312 216.449219 262.207031 L 205.316406 269.53125 C 205.023438 269.53125 205.023438 269.53125 204.730469 269.53125 L 157.855469 269.53125 C 154.632812 269.53125 151.996094 272.167969 151.996094 275.390625 L 151.996094 316.40625 C 151.996094 319.628906 154.632812 322.265625 157.855469 322.265625 L 204.730469 322.265625 C 207.953125 322.265625 210.589844 319.628906 210.589844 316.40625 L 210.589844 308.496094 L 222.308594 300.585938 Z M 231.390625 280.078125 L 188.324219 309.375 C 187.445312 309.960938 186.273438 310.546875 185.101562 310.546875 C 183.34375 310.546875 181.878906 309.960938 180.707031 308.496094 L 165.179688 290.625 C 163.128906 288.28125 163.421875 284.472656 165.765625 282.421875 C 168.109375 280.371094 171.917969 280.664062 173.96875 283.007812 L 185.980469 297.070312 L 224.945312 270.703125 C 227.582031 268.945312 231.390625 269.53125 233.148438 272.167969 C 234.90625 274.804688 234.027344 278.320312 231.390625 280.078125 Z M 231.390625 280.078125 " fill-opacity="1" fill-rule="nonzero"/></g></svg>