<svg xmlns="http://www.w3.org/2000/svg" xmlns:xlink="http://www.w3.org/1999/xlink" width="500" zoomAndPan="magnify" viewBox="0 0 375 374.999991" height="500" preserveAspectRatio="xMidYMid meet" version="1.0"><defs><clipPath id="fdee6f8318"><path d="M 194 7.125 L 375 7.125 L 375 186 L 194 186 Z M 194 7.125 " clip-rule="nonzero"/></clipPath><clipPath id="44208a2139"><path d="M 7.125 25 L 167 25 L 167 186 L 7.125 186 Z M 7.125 25 " clip-rule="nonzero"/></clipPath><clipPath id="c690031f5c"><path d="M 7.125 213 L 167 213 L 167 375 L 7.125 375 Z M 7.125 213 " clip-rule="nonzero"/></clipPath></defs><g clip-path="url(#fdee6f8318)"><path fill="#ff0e0e" d="M 322.175781 185.402344 L 246.714844 185.402344 C 245.015625 185.402344 243.320312 185.316406 241.628906 185.152344 C 239.9375 184.984375 238.257812 184.734375 236.59375 184.40625 C 234.925781 184.074219 233.28125 183.660156 231.652344 183.167969 C 230.027344 182.675781 228.429688 182.101562 226.859375 181.453125 C 225.289062 180.800781 223.757812 180.078125 222.257812 179.277344 C 220.757812 178.472656 219.304688 177.601562 217.890625 176.65625 C 216.476562 175.714844 215.113281 174.703125 213.800781 173.625 C 212.488281 172.546875 211.230469 171.40625 210.027344 170.207031 C 208.828125 169.003906 207.6875 167.746094 206.609375 166.433594 C 205.53125 165.121094 204.519531 163.757812 203.578125 162.34375 C 202.632812 160.933594 201.761719 159.476562 200.960938 157.976562 C 200.160156 156.480469 199.433594 154.945312 198.78125 153.375 C 198.132812 151.804688 197.5625 150.207031 197.066406 148.582031 C 196.574219 146.957031 196.164062 145.308594 195.832031 143.644531 C 195.5 141.976562 195.25 140.296875 195.082031 138.605469 C 194.917969 136.914062 194.835938 135.21875 194.835938 133.523438 L 194.835938 58.058594 C 194.835938 56.359375 194.917969 54.664062 195.082031 52.976562 C 195.25 51.285156 195.5 49.605469 195.832031 47.9375 C 196.164062 46.273438 196.574219 44.625 197.066406 43 C 197.5625 41.375 198.132812 39.777344 198.78125 38.207031 C 199.433594 36.636719 200.160156 35.101562 200.960938 33.605469 C 201.761719 32.105469 202.632812 30.648438 203.578125 29.238281 C 204.519531 27.824219 205.53125 26.460938 206.609375 25.148438 C 207.6875 23.835938 208.828125 22.578125 210.027344 21.375 C 211.230469 20.175781 212.488281 19.035156 213.800781 17.957031 C 215.113281 16.878906 216.476562 15.867188 217.890625 14.921875 C 219.304688 13.980469 220.757812 13.105469 222.257812 12.304688 C 223.757812 11.503906 225.289062 10.78125 226.859375 10.128906 C 228.429688 9.480469 230.027344 8.90625 231.652344 8.414062 C 233.28125 7.921875 234.925781 7.507812 236.59375 7.175781 C 238.257812 6.84375 239.9375 6.597656 241.628906 6.429688 C 243.320312 6.261719 245.015625 6.179688 246.714844 6.179688 L 322.175781 6.179688 C 323.875 6.179688 325.570312 6.261719 327.261719 6.429688 C 328.953125 6.597656 330.628906 6.84375 332.296875 7.175781 C 333.964844 7.507812 335.609375 7.921875 337.234375 8.414062 C 338.859375 8.90625 340.460938 9.480469 342.027344 10.128906 C 343.597656 10.78125 345.132812 11.503906 346.632812 12.304688 C 348.128906 13.105469 349.585938 13.980469 351 14.921875 C 352.410156 15.867188 353.773438 16.878906 355.085938 17.957031 C 356.402344 19.035156 357.660156 20.175781 358.859375 21.375 C 360.0625 22.578125 361.199219 23.835938 362.277344 25.148438 C 363.355469 26.460938 364.367188 27.824219 365.3125 29.238281 C 366.253906 30.648438 367.128906 32.105469 367.929688 33.605469 C 368.730469 35.101562 369.457031 36.636719 370.105469 38.207031 C 370.757812 39.777344 371.328125 41.375 371.820312 43 C 372.316406 44.625 372.726562 46.273438 373.058594 47.9375 C 373.390625 49.605469 373.640625 51.285156 373.804688 52.976562 C 373.972656 54.664062 374.054688 56.359375 374.054688 58.058594 L 374.054688 133.523438 C 374.054688 135.21875 373.972656 136.914062 373.804688 138.605469 C 373.640625 140.296875 373.390625 141.976562 373.058594 143.644531 C 372.726562 145.308594 372.316406 146.957031 371.820312 148.582031 C 371.328125 150.207031 370.757812 151.804688 370.105469 153.375 C 369.457031 154.945312 368.730469 156.480469 367.929688 157.976562 C 367.128906 159.476562 366.253906 160.933594 365.3125 162.34375 C 364.367188 163.757812 363.355469 165.121094 362.277344 166.433594 C 361.199219 167.746094 360.0625 169.003906 358.859375 170.207031 C 357.660156 171.40625 356.402344 172.546875 355.085938 173.625 C 353.773438 174.703125 352.410156 175.714844 351 176.65625 C 349.585938 177.601562 348.128906 178.472656 346.632812 179.277344 C 345.132812 180.078125 343.597656 180.800781 342.027344 181.453125 C 340.460938 182.101562 338.859375 182.675781 337.234375 183.167969 C 335.609375 183.660156 333.964844 184.074219 332.296875 184.40625 C 330.628906 184.734375 328.953125 184.984375 327.261719 185.152344 C 325.570312 185.316406 323.875 185.402344 322.175781 185.402344 Z M 246.714844 34.476562 C 245.941406 34.476562 245.171875 34.515625 244.402344 34.59375 C 243.632812 34.667969 242.871094 34.78125 242.113281 34.929688 C 241.355469 35.082031 240.609375 35.269531 239.867188 35.492188 C 239.128906 35.71875 238.402344 35.976562 237.691406 36.273438 C 236.976562 36.570312 236.277344 36.898438 235.597656 37.261719 C 234.917969 37.625 234.253906 38.023438 233.613281 38.453125 C 232.96875 38.882812 232.351562 39.339844 231.753906 39.832031 C 231.15625 40.320312 230.585938 40.839844 230.039062 41.386719 C 229.492188 41.929688 228.976562 42.503906 228.484375 43.101562 C 227.996094 43.695312 227.535156 44.316406 227.105469 44.957031 C 226.675781 45.601562 226.28125 46.261719 225.917969 46.945312 C 225.550781 47.625 225.222656 48.320312 224.925781 49.035156 C 224.632812 49.75 224.371094 50.476562 224.148438 51.214844 C 223.921875 51.953125 223.734375 52.703125 223.585938 53.460938 C 223.433594 54.21875 223.320312 54.980469 223.246094 55.75 C 223.171875 56.515625 223.132812 57.289062 223.132812 58.058594 L 223.132812 133.523438 C 223.132812 134.292969 223.171875 135.0625 223.246094 135.832031 C 223.320312 136.601562 223.433594 137.363281 223.585938 138.121094 C 223.734375 138.878906 223.921875 139.628906 224.148438 140.367188 C 224.371094 141.105469 224.632812 141.832031 224.925781 142.546875 C 225.222656 143.257812 225.550781 143.957031 225.917969 144.636719 C 226.28125 145.320312 226.675781 145.980469 227.105469 146.621094 C 227.535156 147.265625 227.996094 147.882812 228.484375 148.480469 C 228.976562 149.078125 229.492188 149.648438 230.039062 150.195312 C 230.585938 150.742188 231.15625 151.261719 231.753906 151.75 C 232.351562 152.242188 232.96875 152.699219 233.613281 153.128906 C 234.253906 153.558594 234.917969 153.953125 235.597656 154.320312 C 236.277344 154.683594 236.976562 155.011719 237.691406 155.308594 C 238.402344 155.605469 239.128906 155.863281 239.867188 156.085938 C 240.609375 156.3125 241.355469 156.5 242.113281 156.648438 C 242.871094 156.800781 243.632812 156.914062 244.402344 156.988281 C 245.171875 157.066406 245.941406 157.101562 246.714844 157.101562 L 322.175781 157.101562 C 322.949219 157.101562 323.71875 157.066406 324.488281 156.988281 C 325.253906 156.914062 326.019531 156.800781 326.777344 156.648438 C 327.535156 156.5 328.28125 156.3125 329.019531 156.085938 C 329.761719 155.863281 330.484375 155.605469 331.199219 155.308594 C 331.914062 155.011719 332.609375 154.683594 333.292969 154.320312 C 333.972656 153.953125 334.632812 153.558594 335.277344 153.128906 C 335.917969 152.699219 336.539062 152.242188 337.136719 151.75 C 337.734375 151.261719 338.304688 150.742188 338.851562 150.195312 C 339.394531 149.648438 339.914062 149.078125 340.40625 148.480469 C 340.894531 147.882812 341.355469 147.265625 341.78125 146.621094 C 342.210938 145.980469 342.609375 145.320312 342.972656 144.636719 C 343.335938 143.957031 343.667969 143.257812 343.960938 142.546875 C 344.257812 141.832031 344.515625 141.105469 344.742188 140.367188 C 344.964844 139.628906 345.152344 138.878906 345.304688 138.121094 C 345.453125 137.363281 345.566406 136.601562 345.644531 135.832031 C 345.71875 135.0625 345.757812 134.292969 345.757812 133.523438 L 345.757812 58.058594 C 345.757812 57.289062 345.71875 56.515625 345.644531 55.75 C 345.566406 54.980469 345.453125 54.21875 345.304688 53.460938 C 345.152344 52.703125 344.964844 51.953125 344.742188 51.214844 C 344.515625 50.476562 344.257812 49.75 343.960938 49.035156 C 343.667969 48.320312 343.335938 47.625 342.972656 46.945312 C 342.609375 46.261719 342.210938 45.601562 341.78125 44.957031 C 341.355469 44.316406 340.894531 43.695312 340.40625 43.101562 C 339.914062 42.503906 339.394531 41.929688 338.851562 41.386719 C 338.304688 40.839844 337.734375 40.320312 337.136719 39.832031 C 336.539062 39.339844 335.917969 38.882812 335.277344 38.453125 C 334.632812 38.023438 333.972656 37.625 333.292969 37.261719 C 332.609375 36.898438 331.914062 36.570312 331.199219 36.273438 C 330.484375 35.976562 329.761719 35.71875 329.019531 35.492188 C 328.28125 35.269531 327.535156 35.082031 326.777344 34.929688 C 326.019531 34.78125 325.253906 34.667969 324.488281 34.59375 C 323.71875 34.515625 322.949219 34.476562 322.175781 34.476562 Z M 246.714844 34.476562 " fill-opacity="1" fill-rule="nonzero"/></g><g clip-path="url(#44208a2139)"><path fill="#ff0e0e" d="M 114.65625 185.402344 L 58.058594 185.402344 C 56.359375 185.402344 54.664062 185.316406 52.976562 185.152344 C 51.285156 184.984375 49.605469 184.734375 47.9375 184.40625 C 46.273438 184.074219 44.625 183.660156 43 183.167969 C 41.375 182.675781 39.777344 182.101562 38.207031 181.453125 C 36.636719 180.800781 35.101562 180.078125 33.605469 179.277344 C 32.105469 178.472656 30.648438 177.601562 29.238281 176.65625 C 27.824219 175.714844 26.460938 174.703125 25.148438 173.625 C 23.835938 172.546875 22.578125 171.40625 21.375 170.207031 C 20.175781 169.003906 19.035156 167.746094 17.957031 166.433594 C 16.878906 165.121094 15.867188 163.757812 14.921875 162.34375 C 13.980469 160.933594 13.105469 159.476562 12.304688 157.976562 C 11.503906 156.480469 10.78125 154.945312 10.128906 153.375 C 9.480469 151.804688 8.90625 150.207031 8.414062 148.582031 C 7.921875 146.957031 7.507812 145.308594 7.175781 143.644531 C 6.84375 141.976562 6.597656 140.296875 6.429688 138.605469 C 6.261719 136.914062 6.179688 135.21875 6.179688 133.523438 L 6.179688 76.925781 C 6.179688 75.226562 6.261719 73.53125 6.429688 71.839844 C 6.597656 70.148438 6.84375 68.46875 7.175781 66.804688 C 7.507812 65.136719 7.921875 63.492188 8.414062 61.867188 C 8.90625 60.238281 9.480469 58.640625 10.128906 57.070312 C 10.78125 55.503906 11.503906 53.96875 12.304688 52.46875 C 13.105469 50.972656 13.980469 49.515625 14.921875 48.101562 C 15.867188 46.691406 16.878906 45.328125 17.957031 44.011719 C 19.035156 42.699219 20.175781 41.441406 21.375 40.242188 C 22.578125 39.039062 23.835938 37.898438 25.148438 36.820312 C 26.460938 35.742188 27.824219 34.734375 29.238281 33.789062 C 30.648438 32.84375 32.105469 31.972656 33.605469 31.171875 C 35.101562 30.371094 36.636719 29.644531 38.207031 28.996094 C 39.777344 28.34375 41.375 27.773438 43 27.28125 C 44.625 26.785156 46.273438 26.375 47.9375 26.042969 C 49.605469 25.710938 51.285156 25.460938 52.976562 25.296875 C 54.664062 25.128906 56.359375 25.046875 58.058594 25.046875 L 114.65625 25.046875 C 116.355469 25.046875 118.050781 25.128906 119.742188 25.296875 C 121.433594 25.460938 123.109375 25.710938 124.777344 26.042969 C 126.445312 26.375 128.089844 26.785156 129.714844 27.28125 C 131.34375 27.773438 132.941406 28.34375 134.507812 28.996094 C 136.078125 29.644531 137.613281 30.371094 139.113281 31.171875 C 140.609375 31.972656 142.066406 32.84375 143.480469 33.789062 C 144.890625 34.734375 146.253906 35.742188 147.570312 36.820312 C 148.882812 37.898438 150.140625 39.039062 151.339844 40.242188 C 152.542969 41.441406 153.683594 42.699219 154.761719 44.011719 C 155.835938 45.328125 156.847656 46.691406 157.792969 48.101562 C 158.738281 49.515625 159.609375 50.972656 160.410156 52.46875 C 161.210938 53.96875 161.9375 55.503906 162.585938 57.070312 C 163.238281 58.640625 163.808594 60.238281 164.300781 61.867188 C 164.796875 63.492188 165.207031 65.136719 165.539062 66.804688 C 165.871094 68.46875 166.121094 70.148438 166.285156 71.839844 C 166.453125 73.53125 166.535156 75.226562 166.535156 76.925781 L 166.535156 133.523438 C 166.535156 135.21875 166.453125 136.914062 166.285156 138.605469 C 166.121094 140.296875 165.871094 141.976562 165.539062 143.644531 C 165.207031 145.308594 164.796875 146.957031 164.300781 148.582031 C 163.808594 150.207031 163.238281 151.804688 162.585938 153.375 C 161.9375 154.945312 161.210938 156.480469 160.410156 157.976562 C 159.609375 159.476562 158.738281 160.933594 157.792969 162.34375 C 156.847656 163.757812 155.835938 165.121094 154.761719 166.433594 C 153.683594 167.746094 152.542969 169.003906 151.339844 170.207031 C 150.140625 171.40625 148.882812 172.546875 147.570312 173.625 C 146.253906 174.703125 144.890625 175.714844 143.480469 176.65625 C 142.066406 177.601562 140.609375 178.472656 139.113281 179.277344 C 137.613281 180.078125 136.078125 180.800781 134.507812 181.453125 C 132.941406 182.101562 131.34375 182.675781 129.714844 183.167969 C 128.089844 183.660156 126.445312 184.074219 124.777344 184.40625 C 123.109375 184.734375 121.433594 184.984375 119.742188 185.152344 C 118.050781 185.316406 116.355469 185.402344 114.65625 185.402344 Z M 58.058594 53.34375 C 57.289062 53.34375 56.515625 53.382812 55.75 53.457031 C 54.980469 53.53125 54.21875 53.644531 53.460938 53.796875 C 52.703125 53.949219 51.953125 54.136719 51.214844 54.359375 C 50.476562 54.582031 49.75 54.84375 49.035156 55.140625 C 48.320312 55.433594 47.625 55.765625 46.945312 56.128906 C 46.261719 56.492188 45.601562 56.890625 44.957031 57.316406 C 44.316406 57.746094 43.695312 58.207031 43.101562 58.695312 C 42.503906 59.1875 41.929688 59.703125 41.386719 60.25 C 40.839844 60.796875 40.320312 61.367188 39.832031 61.964844 C 39.339844 62.5625 38.882812 63.183594 38.453125 63.824219 C 38.023438 64.464844 37.625 65.128906 37.261719 65.808594 C 36.898438 66.488281 36.570312 67.1875 36.273438 67.902344 C 35.976562 68.613281 35.71875 69.339844 35.492188 70.078125 C 35.269531 70.820312 35.082031 71.566406 34.929688 72.324219 C 34.78125 73.082031 34.667969 73.84375 34.59375 74.613281 C 34.515625 75.382812 34.476562 76.152344 34.476562 76.925781 L 34.476562 133.523438 C 34.476562 134.292969 34.515625 135.0625 34.59375 135.832031 C 34.667969 136.601562 34.78125 137.363281 34.929688 138.121094 C 35.082031 138.878906 35.269531 139.628906 35.492188 140.367188 C 35.71875 141.105469 35.976562 141.832031 36.273438 142.546875 C 36.570312 143.257812 36.898438 143.957031 37.261719 144.636719 C 37.625 145.320312 38.023438 145.980469 38.453125 146.621094 C 38.882812 147.265625 39.339844 147.882812 39.832031 148.480469 C 40.320312 149.078125 40.839844 149.648438 41.386719 150.195312 C 41.929688 150.742188 42.503906 151.261719 43.101562 151.75 C 43.695312 152.242188 44.316406 152.699219 44.957031 153.128906 C 45.601562 153.558594 46.261719 153.953125 46.945312 154.320312 C 47.625 154.683594 48.320312 155.011719 49.035156 155.308594 C 49.75 155.605469 50.476562 155.863281 51.214844 156.085938 C 51.953125 156.3125 52.703125 156.5 53.460938 156.648438 C 54.21875 156.800781 54.980469 156.914062 55.75 156.988281 C 56.515625 157.066406 57.289062 157.101562 58.058594 157.101562 L 114.65625 157.101562 C 115.429688 157.101562 116.199219 157.066406 116.96875 156.988281 C 117.734375 156.914062 118.5 156.800781 119.257812 156.648438 C 120.015625 156.5 120.761719 156.3125 121.5 156.085938 C 122.242188 155.863281 122.96875 155.605469 123.679688 155.308594 C 124.394531 155.011719 125.089844 154.683594 125.773438 154.320312 C 126.453125 153.953125 127.117188 153.558594 127.757812 153.128906 C 128.398438 152.699219 129.019531 152.242188 129.617188 151.75 C 130.214844 151.261719 130.785156 150.742188 131.332031 150.195312 C 131.878906 149.648438 132.394531 149.078125 132.886719 148.480469 C 133.375 147.882812 133.835938 147.265625 134.261719 146.621094 C 134.691406 145.980469 135.089844 145.320312 135.453125 144.636719 C 135.816406 143.957031 136.148438 143.257812 136.441406 142.546875 C 136.738281 141.832031 137 141.105469 137.222656 140.367188 C 137.445312 139.628906 137.632812 138.878906 137.785156 138.121094 C 137.933594 137.363281 138.046875 136.601562 138.125 135.832031 C 138.199219 135.0625 138.238281 134.292969 138.238281 133.523438 L 138.238281 76.925781 C 138.238281 76.152344 138.199219 75.382812 138.125 74.613281 C 138.046875 73.84375 137.933594 73.082031 137.785156 72.324219 C 137.632812 71.566406 137.445312 70.820312 137.222656 70.078125 C 137 69.339844 136.738281 68.613281 136.441406 67.902344 C 136.148438 67.1875 135.816406 66.488281 135.453125 65.808594 C 135.089844 65.128906 134.691406 64.464844 134.261719 63.824219 C 133.835938 63.183594 133.375 62.5625 132.886719 61.964844 C 132.394531 61.367188 131.878906 60.796875 131.332031 60.25 C 130.785156 59.703125 130.214844 59.1875 129.617188 58.695312 C 129.019531 58.207031 128.398438 57.746094 127.757812 57.316406 C 127.117188 56.890625 126.453125 56.492188 125.773438 56.128906 C 125.089844 55.765625 124.394531 55.433594 123.679688 55.140625 C 122.96875 54.84375 122.242188 54.582031 121.5 54.359375 C 120.761719 54.136719 120.015625 53.949219 119.257812 53.796875 C 118.5 53.644531 117.734375 53.53125 116.96875 53.457031 C 116.199219 53.382812 115.429688 53.34375 114.65625 53.34375 Z M 58.058594 53.34375 " fill-opacity="1" fill-rule="nonzero"/></g><path fill="#ff0e0e" d="M 303.308594 374.054688 L 246.714844 374.054688 C 245.015625 374.054688 243.320312 373.972656 241.628906 373.804688 C 239.9375 373.640625 238.257812 373.390625 236.59375 373.058594 C 234.925781 372.726562 233.28125 372.316406 231.652344 371.820312 C 230.027344 371.328125 228.429688 370.757812 226.859375 370.105469 C 225.289062 369.457031 223.757812 368.730469 222.257812 367.929688 C 220.757812 367.128906 219.304688 366.253906 217.890625 365.3125 C 216.476562 364.367188 215.113281 363.355469 213.800781 362.277344 C 212.488281 361.199219 211.230469 360.0625 210.027344 358.859375 C 208.828125 357.660156 207.6875 356.402344 206.609375 355.085938 C 205.53125 353.773438 204.519531 352.410156 203.578125 351 C 202.632812 349.585938 201.761719 348.128906 200.960938 346.632812 C 200.160156 345.132812 199.433594 343.597656 198.78125 342.027344 C 198.132812 340.460938 197.5625 338.859375 197.066406 337.234375 C 196.574219 335.609375 196.164062 333.964844 195.832031 332.296875 C 195.5 330.628906 195.25 328.953125 195.082031 327.261719 C 194.917969 325.570312 194.835938 323.875 194.835938 322.175781 L 194.835938 265.578125 C 194.835938 263.878906 194.917969 262.183594 195.082031 260.496094 C 195.25 258.804688 195.5 257.125 195.832031 255.457031 C 196.164062 253.792969 196.574219 252.144531 197.066406 250.519531 C 197.5625 248.894531 198.132812 247.296875 198.78125 245.726562 C 199.433594 244.15625 200.160156 242.621094 200.960938 241.125 C 201.761719 239.625 202.632812 238.167969 203.578125 236.757812 C 204.519531 235.34375 205.53125 233.980469 206.609375 232.667969 C 207.6875 231.355469 208.828125 230.097656 210.027344 228.894531 C 211.230469 227.691406 212.488281 226.554688 213.800781 225.476562 C 215.113281 224.398438 216.476562 223.386719 217.890625 222.441406 C 219.304688 221.5 220.757812 220.625 222.257812 219.824219 C 223.757812 219.023438 225.289062 218.296875 226.859375 217.648438 C 228.429688 217 230.027344 216.425781 231.652344 215.933594 C 233.28125 215.441406 234.925781 215.027344 236.59375 214.695312 C 238.257812 214.363281 239.9375 214.117188 241.628906 213.949219 C 243.320312 213.78125 245.015625 213.699219 246.714844 213.699219 L 303.308594 213.699219 C 305.007812 213.699219 306.703125 213.78125 308.394531 213.949219 C 310.085938 214.117188 311.765625 214.363281 313.429688 214.695312 C 315.097656 215.027344 316.742188 215.441406 318.371094 215.933594 C 319.996094 216.425781 321.59375 217 323.164062 217.648438 C 324.734375 218.296875 326.265625 219.023438 327.765625 219.824219 C 329.265625 220.625 330.71875 221.5 332.132812 222.441406 C 333.546875 223.386719 334.910156 224.398438 336.222656 225.476562 C 337.535156 226.554688 338.792969 227.691406 339.996094 228.894531 C 341.195312 230.097656 342.335938 231.355469 343.414062 232.667969 C 344.492188 233.980469 345.503906 235.34375 346.445312 236.757812 C 347.390625 238.167969 348.261719 239.625 349.0625 241.125 C 349.863281 242.621094 350.589844 244.15625 351.242188 245.726562 C 351.890625 247.296875 352.460938 248.894531 352.957031 250.519531 C 353.449219 252.144531 353.863281 253.792969 354.191406 255.457031 C 354.523438 257.125 354.773438 258.804688 354.941406 260.496094 C 355.105469 262.183594 355.191406 263.878906 355.191406 265.578125 L 355.191406 322.175781 C 355.191406 323.875 355.105469 325.570312 354.941406 327.261719 C 354.773438 328.953125 354.523438 330.628906 354.191406 332.296875 C 353.863281 333.964844 353.449219 335.609375 352.957031 337.234375 C 352.460938 338.859375 351.890625 340.460938 351.242188 342.027344 C 350.589844 343.597656 349.863281 345.132812 349.0625 346.632812 C 348.261719 348.128906 347.390625 349.585938 346.445312 351 C 345.503906 352.410156 344.492188 353.773438 343.414062 355.085938 C 342.335938 356.402344 341.195312 357.660156 339.996094 358.859375 C 338.792969 360.0625 337.535156 361.199219 336.222656 362.277344 C 334.910156 363.355469 333.546875 364.367188 332.132812 365.3125 C 330.71875 366.253906 329.265625 367.128906 327.765625 367.929688 C 326.265625 368.730469 324.734375 369.457031 323.164062 370.105469 C 321.59375 370.757812 319.996094 371.328125 318.371094 371.820312 C 316.742188 372.316406 315.097656 372.726562 313.429688 373.058594 C 311.765625 373.390625 310.085938 373.640625 308.394531 373.804688 C 306.703125 373.972656 305.007812 374.054688 303.308594 374.054688 Z M 246.714844 241.996094 C 245.941406 241.996094 245.171875 242.035156 244.402344 242.109375 C 243.632812 242.1875 242.871094 242.300781 242.113281 242.449219 C 241.355469 242.601562 240.609375 242.789062 239.867188 243.011719 C 239.128906 243.238281 238.402344 243.496094 237.691406 243.792969 C 236.976562 244.089844 236.277344 244.417969 235.597656 244.78125 C 234.917969 245.144531 234.253906 245.542969 233.613281 245.972656 C 232.96875 246.402344 232.351562 246.859375 231.753906 247.351562 C 231.15625 247.839844 230.585938 248.359375 230.039062 248.90625 C 229.492188 249.449219 228.976562 250.023438 228.484375 250.621094 C 227.996094 251.214844 227.535156 251.835938 227.105469 252.476562 C 226.675781 253.121094 226.28125 253.78125 225.917969 254.464844 C 225.550781 255.144531 225.222656 255.839844 224.925781 256.554688 C 224.632812 257.269531 224.371094 257.996094 224.148438 258.734375 C 223.921875 259.472656 223.734375 260.222656 223.585938 260.980469 C 223.433594 261.734375 223.320312 262.5 223.246094 263.269531 C 223.171875 264.035156 223.132812 264.808594 223.132812 265.578125 L 223.132812 322.175781 C 223.132812 322.949219 223.171875 323.71875 223.246094 324.488281 C 223.320312 325.253906 223.433594 326.019531 223.585938 326.777344 C 223.734375 327.535156 223.921875 328.28125 224.148438 329.019531 C 224.371094 329.761719 224.632812 330.484375 224.925781 331.199219 C 225.222656 331.914062 225.550781 332.609375 225.917969 333.292969 C 226.28125 333.972656 226.675781 334.632812 227.105469 335.277344 C 227.535156 335.917969 227.996094 336.539062 228.484375 337.136719 C 228.976562 337.734375 229.492188 338.304688 230.039062 338.851562 C 230.585938 339.394531 231.15625 339.914062 231.753906 340.40625 C 232.351562 340.894531 232.96875 341.355469 233.613281 341.78125 C 234.253906 342.210938 234.917969 342.609375 235.597656 342.972656 C 236.277344 343.335938 236.976562 343.667969 237.691406 343.960938 C 238.402344 344.257812 239.128906 344.515625 239.867188 344.742188 C 240.609375 344.964844 241.355469 345.152344 242.113281 345.304688 C 242.871094 345.453125 243.632812 345.566406 244.402344 345.644531 C 245.171875 345.71875 245.941406 345.757812 246.714844 345.757812 L 303.308594 345.757812 C 304.082031 345.757812 304.851562 345.71875 305.621094 345.644531 C 306.390625 345.566406 307.152344 345.453125 307.910156 345.304688 C 308.667969 345.152344 309.417969 344.964844 310.15625 344.742188 C 310.894531 344.515625 311.621094 344.257812 312.335938 343.960938 C 313.046875 343.667969 313.746094 343.335938 314.425781 342.972656 C 315.109375 342.609375 315.769531 342.210938 316.410156 341.78125 C 317.054688 341.355469 317.671875 340.894531 318.269531 340.40625 C 318.867188 339.914062 319.4375 339.394531 319.984375 338.851562 C 320.53125 338.304688 321.050781 337.734375 321.539062 337.136719 C 322.027344 336.539062 322.488281 335.917969 322.917969 335.277344 C 323.347656 334.632812 323.742188 333.972656 324.105469 333.292969 C 324.472656 332.609375 324.800781 331.914062 325.097656 331.199219 C 325.390625 330.484375 325.652344 329.761719 325.875 329.019531 C 326.101562 328.28125 326.289062 327.535156 326.4375 326.777344 C 326.589844 326.019531 326.703125 325.253906 326.777344 324.488281 C 326.855469 323.71875 326.890625 322.949219 326.890625 322.175781 L 326.890625 265.578125 C 326.890625 264.808594 326.855469 264.035156 326.777344 263.269531 C 326.703125 262.5 326.589844 261.734375 326.4375 260.980469 C 326.289062 260.222656 326.101562 259.472656 325.875 258.734375 C 325.652344 257.996094 325.390625 257.269531 325.097656 256.554688 C 324.800781 255.839844 324.472656 255.144531 324.105469 254.464844 C 323.742188 253.78125 323.347656 253.121094 322.917969 252.476562 C 322.488281 251.835938 322.027344 251.214844 321.539062 250.617188 C 321.050781 250.023438 320.53125 249.449219 319.984375 248.90625 C 319.4375 248.359375 318.867188 247.839844 318.269531 247.351562 C 317.671875 246.859375 317.054688 246.402344 316.410156 245.972656 C 315.769531 245.542969 315.109375 245.144531 314.425781 244.78125 C 313.746094 244.417969 313.046875 244.089844 312.335938 243.792969 C 311.621094 243.496094 310.894531 243.238281 310.15625 243.011719 C 309.417969 242.789062 308.667969 242.601562 307.910156 242.449219 C 307.152344 242.300781 306.390625 242.1875 305.621094 242.109375 C 304.851562 242.035156 304.082031 241.996094 303.308594 241.996094 Z M 246.714844 241.996094 " fill-opacity="1" fill-rule="nonzero"/><g clip-path="url(#c690031f5c)"><path fill="#ff0e0e" d="M 114.65625 374.054688 L 58.058594 374.054688 C 56.359375 374.054688 54.664062 373.972656 52.976562 373.804688 C 51.285156 373.640625 49.605469 373.390625 47.9375 373.058594 C 46.273438 372.726562 44.625 372.316406 43 371.820312 C 41.375 371.328125 39.777344 370.757812 38.207031 370.105469 C 36.636719 369.457031 35.101562 368.730469 33.605469 367.929688 C 32.105469 367.128906 30.648438 366.253906 29.238281 365.3125 C 27.824219 364.367188 26.460938 363.355469 25.148438 362.277344 C 23.835938 361.199219 22.578125 360.0625 21.375 358.859375 C 20.175781 357.660156 19.035156 356.402344 17.957031 355.085938 C 16.878906 353.773438 15.867188 352.410156 14.921875 351 C 13.980469 349.585938 13.105469 348.128906 12.304688 346.632812 C 11.503906 345.132812 10.78125 343.597656 10.128906 342.027344 C 9.480469 340.460938 8.90625 338.859375 8.414062 337.234375 C 7.921875 335.609375 7.507812 333.964844 7.175781 332.296875 C 6.84375 330.628906 6.597656 328.953125 6.429688 327.261719 C 6.261719 325.570312 6.179688 323.875 6.179688 322.175781 L 6.179688 265.578125 C 6.179688 263.878906 6.261719 262.183594 6.429688 260.496094 C 6.597656 258.804688 6.84375 257.125 7.175781 255.457031 C 7.507812 253.792969 7.921875 252.144531 8.414062 250.519531 C 8.90625 248.894531 9.480469 247.296875 10.128906 245.726562 C 10.78125 244.15625 11.503906 242.621094 12.304688 241.125 C 13.105469 239.625 13.980469 238.167969 14.921875 236.757812 C 15.867188 235.34375 16.878906 233.980469 17.957031 232.667969 C 19.035156 231.355469 20.175781 230.097656 21.375 228.894531 C 22.578125 227.691406 23.835938 226.554688 25.148438 225.476562 C 26.460938 224.398438 27.824219 223.386719 29.238281 222.441406 C 30.648438 221.5 32.105469 220.625 33.605469 219.824219 C 35.101562 219.023438 36.636719 218.296875 38.207031 217.648438 C 39.777344 217 41.375 216.425781 43 215.933594 C 44.625 215.441406 46.273438 215.027344 47.9375 214.695312 C 49.605469 214.363281 51.285156 214.117188 52.976562 213.949219 C 54.664062 213.78125 56.359375 213.699219 58.058594 213.699219 L 114.65625 213.699219 C 116.355469 213.699219 118.050781 213.78125 119.742188 213.949219 C 121.433594 214.117188 123.109375 214.363281 124.777344 214.695312 C 126.445312 215.027344 128.089844 215.441406 129.714844 215.933594 C 131.34375 216.425781 132.941406 217 134.507812 217.648438 C 136.078125 218.296875 137.613281 219.023438 139.113281 219.824219 C 140.609375 220.625 142.066406 221.5 143.480469 222.441406 C 144.890625 223.386719 146.253906 224.398438 147.570312 225.476562 C 148.882812 226.554688 150.140625 227.691406 151.339844 228.894531 C 152.542969 230.097656 153.683594 231.355469 154.761719 232.667969 C 155.835938 233.980469 156.847656 235.34375 157.792969 236.757812 C 158.738281 238.167969 159.609375 239.625 160.410156 241.125 C 161.210938 242.621094 161.9375 244.15625 162.585938 245.726562 C 163.238281 247.296875 163.808594 248.894531 164.300781 250.519531 C 164.796875 252.144531 165.207031 253.792969 165.539062 255.457031 C 165.871094 257.125 166.121094 258.804688 166.285156 260.496094 C 166.453125 262.183594 166.535156 263.878906 166.535156 265.578125 L 166.535156 322.175781 C 166.535156 323.875 166.453125 325.570312 166.285156 327.261719 C 166.121094 328.953125 165.871094 330.628906 165.539062 332.296875 C 165.207031 333.964844 164.796875 335.609375 164.300781 337.234375 C 163.808594 338.859375 163.238281 340.460938 162.585938 342.027344 C 161.9375 343.597656 161.210938 345.132812 160.410156 346.632812 C 159.609375 348.128906 158.738281 349.585938 157.792969 351 C 156.847656 352.410156 155.835938 353.773438 154.761719 355.085938 C 153.683594 356.402344 152.542969 357.660156 151.339844 358.859375 C 150.140625 360.0625 148.882812 361.199219 147.570312 362.277344 C 146.253906 363.355469 144.890625 364.367188 143.480469 365.3125 C 142.066406 366.253906 140.609375 367.128906 139.113281 367.929688 C 137.613281 368.730469 136.078125 369.457031 134.507812 370.105469 C 132.941406 370.757812 131.34375 371.328125 129.714844 371.820312 C 128.089844 372.316406 126.445312 372.726562 124.777344 373.058594 C 123.109375 373.390625 121.433594 373.640625 119.742188 373.804688 C 118.050781 373.972656 116.355469 374.054688 114.65625 374.054688 Z M 58.058594 241.996094 C 57.289062 241.996094 56.515625 242.035156 55.75 242.109375 C 54.980469 242.1875 54.21875 242.300781 53.460938 242.449219 C 52.703125 242.601562 51.953125 242.789062 51.214844 243.011719 C 50.476562 243.238281 49.75 243.496094 49.035156 243.792969 C 48.320312 244.089844 47.625 244.417969 46.945312 244.78125 C 46.261719 245.144531 45.601562 245.542969 44.957031 245.972656 C 44.316406 246.402344 43.695312 246.859375 43.101562 247.351562 C 42.503906 247.839844 41.929688 248.359375 41.386719 248.90625 C 40.839844 249.449219 40.320312 250.023438 39.832031 250.621094 C 39.339844 251.214844 38.882812 251.835938 38.453125 252.476562 C 38.023438 253.121094 37.625 253.78125 37.261719 254.464844 C 36.898438 255.144531 36.570312 255.839844 36.273438 256.554688 C 35.976562 257.269531 35.71875 257.996094 35.492188 258.734375 C 35.269531 259.472656 35.082031 260.222656 34.929688 260.980469 C 34.78125 261.734375 34.667969 262.5 34.59375 263.269531 C 34.515625 264.035156 34.476562 264.808594 34.476562 265.578125 L 34.476562 322.175781 C 34.476562 322.949219 34.515625 323.71875 34.59375 324.488281 C 34.667969 325.253906 34.78125 326.019531 34.929688 326.777344 C 35.082031 327.535156 35.269531 328.28125 35.492188 329.019531 C 35.71875 329.761719 35.976562 330.484375 36.273438 331.199219 C 36.570312 331.914062 36.898438 332.609375 37.261719 333.292969 C 37.625 333.972656 38.023438 334.632812 38.453125 335.277344 C 38.882812 335.917969 39.339844 336.539062 39.832031 337.136719 C 40.320312 337.734375 40.839844 338.304688 41.386719 338.851562 C 41.929688 339.394531 42.503906 339.914062 43.101562 340.40625 C 43.695312 340.894531 44.316406 341.355469 44.957031 341.78125 C 45.601562 342.210938 46.261719 342.609375 46.945312 342.972656 C 47.625 343.335938 48.320312 343.667969 49.035156 343.960938 C 49.75 344.257812 50.476562 344.515625 51.214844 344.742188 C 51.953125 344.964844 52.703125 345.152344 53.460938 345.304688 C 54.21875 345.453125 54.980469 345.566406 55.75 345.644531 C 56.515625 345.71875 57.289062 345.757812 58.058594 345.757812 L 114.65625 345.757812 C 115.429688 345.757812 116.199219 345.71875 116.96875 345.644531 C 117.734375 345.566406 118.5 345.453125 119.257812 345.304688 C 120.015625 345.152344 120.761719 344.964844 121.5 344.742188 C 122.242188 344.515625 122.96875 344.257812 123.679688 343.960938 C 124.394531 343.667969 125.089844 343.335938 125.773438 342.972656 C 126.453125 342.609375 127.117188 342.210938 127.757812 341.78125 C 128.398438 341.355469 129.019531 340.894531 129.617188 340.40625 C 130.214844 339.914062 130.785156 339.394531 131.332031 338.851562 C 131.878906 338.304688 132.394531 337.734375 132.886719 337.136719 C 133.375 336.539062 133.835938 335.917969 134.261719 335.277344 C 134.691406 334.632812 135.089844 333.972656 135.453125 333.292969 C 135.816406 332.609375 136.148438 331.914062 136.441406 331.199219 C 136.738281 330.484375 137 329.761719 137.222656 329.019531 C 137.445312 328.28125 137.632812 327.535156 137.785156 326.777344 C 137.933594 326.019531 138.046875 325.253906 138.125 324.488281 C 138.199219 323.71875 138.238281 322.949219 138.238281 322.175781 L 138.238281 265.578125 C 138.238281 264.808594 138.199219 264.035156 138.125 263.269531 C 138.046875 262.5 137.933594 261.734375 137.785156 260.980469 C 137.632812 260.222656 137.445312 259.472656 137.222656 258.734375 C 137 257.996094 136.738281 257.269531 136.441406 256.554688 C 136.148438 255.839844 135.816406 255.144531 135.453125 254.464844 C 135.089844 253.78125 134.691406 253.121094 134.261719 252.476562 C 133.835938 251.835938 133.375 251.214844 132.886719 250.617188 C 132.394531 250.023438 131.878906 249.449219 131.332031 248.90625 C 130.785156 248.359375 130.214844 247.839844 129.617188 247.351562 C 129.019531 246.859375 128.398438 246.402344 127.757812 245.972656 C 127.117188 245.542969 126.453125 245.144531 125.773438 244.78125 C 125.089844 244.417969 124.394531 244.089844 123.679688 243.792969 C 122.96875 243.496094 122.242188 243.238281 121.5 243.011719 C 120.761719 242.789062 120.015625 242.601562 119.257812 242.449219 C 118.5 242.300781 117.734375 242.1875 116.96875 242.109375 C 116.199219 242.035156 115.429688 241.996094 114.65625 241.996094 Z M 58.058594 241.996094 " fill-opacity="1" fill-rule="nonzero"/></g></svg>