<svg xmlns="http://www.w3.org/2000/svg" xmlns:xlink="http://www.w3.org/1999/xlink" width="500" zoomAndPan="magnify" viewBox="0 0 375 374.999991" height="500" preserveAspectRatio="xMidYMid meet" version="1.0"><defs><clipPath id="d5f64b7b8e"><path d="M 60 0 L 314.859375 0 L 314.859375 305 L 60 305 Z M 60 0 " clip-rule="nonzero"/></clipPath></defs><g clip-path="url(#d5f64b7b8e)"><path fill="#ff0e0e" d="M 282.648438 210.542969 L 288.292969 201.464844 C 294.269531 192.222656 314.125 158.964844 314.125 127.085938 C 314.125 57.050781 257.125 0.0429688 187.089844 0.0429688 C 117.050781 0.0429688 60.078125 57.050781 60.078125 127.085938 C 60.078125 158.9375 79.949219 192.191406 86.042969 201.683594 C 85.886719 201.464844 95.046875 215.996094 95.046875 215.996094 C 111.035156 241.039062 126.105469 264.730469 129.664062 293.648438 C 130.429688 299.828125 135.65625 304.464844 141.863281 304.464844 L 234.257812 304.464844 C 240.441406 304.464844 245.691406 299.828125 246.460938 293.679688 C 250.296875 262.503906 266.015625 237.242188 282.648438 210.542969 Z M 282.648438 210.542969 " fill-opacity="1" fill-rule="nonzero"/></g><path fill="#ff0e0e" d="M 235.917969 318.375 L 137.324219 318.375 C 132.671875 318.375 128.902344 322.15625 128.902344 326.808594 C 128.902344 331.46875 132.671875 335.222656 137.324219 335.222656 L 235.917969 335.222656 C 240.554688 335.222656 244.328125 331.46875 244.328125 326.808594 C 244.328125 322.164062 240.554688 318.375 235.917969 318.375 Z M 235.917969 318.375 " fill-opacity="1" fill-rule="nonzero"/><path fill="#ff0e0e" d="M 235.917969 348.046875 L 137.324219 348.046875 C 132.671875 348.046875 128.902344 351.839844 128.902344 356.484375 C 128.902344 361.140625 132.671875 364.894531 137.324219 364.894531 L 157.722656 364.894531 C 158.5625 370.652344 163.421875 375.089844 169.414062 375.089844 L 204.761719 375.089844 C 210.757812 375.089844 215.636719 370.652344 216.457031 364.894531 L 235.917969 364.894531 C 240.554688 364.894531 244.328125 361.140625 244.328125 356.484375 C 244.328125 351.839844 240.554688 348.046875 235.917969 348.046875 Z M 235.917969 348.046875 " fill-opacity="1" fill-rule="nonzero"/></svg>