<svg xmlns="http://www.w3.org/2000/svg" xmlns:xlink="http://www.w3.org/1999/xlink" width="500" zoomAndPan="magnify" viewBox="0 0 375 374.999991" height="500" preserveAspectRatio="xMidYMid meet" version="1.0"><defs><clipPath id="a1b4960dd5"><path d="M 112.5 87 L 333.75 87 L 333.75 222 L 112.5 222 Z M 112.5 87 " clip-rule="nonzero"/></clipPath></defs><path fill="#ff0e0e" d="M 55.261719 360.996094 C 55.261719 368.371094 61.242188 374.429688 68.695312 374.429688 L 101.070312 374.429688 C 108.445312 374.429688 114.503906 368.371094 114.503906 360.996094 L 114.503906 281.261719 L 55.261719 281.261719 Z M 55.261719 360.996094 " fill-opacity="1" fill-rule="nonzero"/><path fill="#ff0e0e" d="M 260.542969 360.996094 C 260.542969 368.371094 266.519531 374.429688 273.976562 374.429688 L 306.351562 374.429688 C 313.726562 374.429688 319.703125 368.371094 319.703125 360.996094 L 319.703125 281.261719 L 260.542969 281.261719 Z M 260.542969 360.996094 " fill-opacity="1" fill-rule="nonzero"/><path fill="#ff0e0e" d="M 174.878906 137.265625 C 174.472656 137.007812 174.082031 136.917969 173.746094 136.917969 C 173.300781 136.917969 172.945312 137.074219 172.761719 137.175781 C 172.433594 137.347656 171.675781 137.886719 171.675781 139.007812 L 171.675781 173.082031 C 171.675781 174.203125 172.433594 174.742188 172.761719 174.917969 C 173.074219 175.097656 173.910156 175.449219 174.839844 174.847656 L 202.355469 157.78125 C 203.230469 157.242188 203.324219 156.386719 203.324219 156.046875 C 203.324219 155.703125 203.230469 154.847656 202.355469 154.308594 Z M 174.878906 137.265625 " fill-opacity="1" fill-rule="nonzero"/><path fill="#ff0e0e" d="M 187.5 105.90625 C 159.851562 105.90625 137.355469 128.402344 137.355469 156.046875 C 137.355469 183.691406 159.851562 206.183594 187.5 206.183594 C 215.148438 206.183594 237.644531 183.691406 237.644531 156.046875 C 237.644531 128.402344 215.148438 105.90625 187.5 105.90625 Z M 206.433594 164.394531 L 178.976562 181.421875 C 177.398438 182.429688 175.585938 182.9375 173.757812 182.9375 C 172.140625 182.9375 170.507812 182.539062 169.03125 181.726562 C 165.875 179.996094 163.914062 176.683594 163.914062 173.082031 L 163.914062 139.007812 C 163.914062 135.40625 165.875 132.09375 169.03125 130.367188 C 172.183594 128.644531 176 128.773438 179.015625 130.691406 L 206.441406 147.707031 C 209.347656 149.496094 211.089844 152.617188 211.089844 156.046875 C 211.089844 159.472656 209.347656 162.597656 206.433594 164.394531 Z M 206.433594 164.394531 " fill-opacity="1" fill-rule="nonzero"/><path fill="#ff0e0e" d="M 345.644531 38.617188 L 337.117188 38.617188 L 337.117188 22.441406 L 343.265625 22.441406 C 347.015625 22.441406 350.058594 19.398438 350.058594 15.648438 L 350.058594 6.589844 C 350.058594 2.835938 347.015625 -0.203125 343.265625 -0.203125 L 315.121094 -0.203125 C 311.367188 -0.203125 308.328125 2.835938 308.328125 6.589844 L 308.328125 15.648438 C 308.328125 19.398438 311.367188 22.441406 315.121094 22.441406 L 320.621094 22.441406 L 320.621094 38.617188 L 266.273438 38.617188 L 266.273438 22.441406 L 272.417969 22.441406 C 276.171875 22.441406 279.210938 19.398438 279.210938 15.648438 L 279.210938 6.589844 C 279.210938 2.835938 276.171875 -0.203125 272.417969 -0.203125 L 244.273438 -0.203125 C 240.523438 -0.203125 237.480469 2.835938 237.480469 6.589844 L 237.480469 15.648438 C 237.480469 19.398438 240.523438 22.441406 244.273438 22.441406 L 249.773438 22.441406 L 249.773438 38.617188 L 195.425781 38.617188 L 195.425781 22.441406 L 201.570312 22.441406 C 205.324219 22.441406 208.367188 19.398438 208.367188 15.648438 L 208.367188 6.589844 C 208.367188 2.835938 205.324219 -0.203125 201.570312 -0.203125 L 173.429688 -0.203125 C 169.675781 -0.203125 166.632812 2.835938 166.632812 6.589844 L 166.632812 15.648438 C 166.632812 19.398438 169.675781 22.441406 173.429688 22.441406 L 178.925781 22.441406 L 178.925781 38.617188 L 124.578125 38.617188 L 124.578125 22.441406 L 130.726562 22.441406 C 134.476562 22.441406 137.519531 19.398438 137.519531 15.648438 L 137.519531 6.589844 C 137.519531 2.835938 134.476562 -0.203125 130.726562 -0.203125 L 102.582031 -0.203125 C 98.828125 -0.203125 95.789062 2.835938 95.789062 6.589844 L 95.789062 15.648438 C 95.789062 19.398438 98.828125 22.441406 102.582031 22.441406 L 108.082031 22.441406 L 108.082031 38.617188 L 53.734375 38.617188 L 53.734375 22.441406 L 59.878906 22.441406 C 63.632812 22.441406 66.671875 19.398438 66.671875 15.648438 L 66.671875 6.589844 C 66.671875 2.835938 63.632812 -0.203125 59.878906 -0.203125 L 31.734375 -0.203125 C 27.984375 -0.203125 24.941406 2.835938 24.941406 6.589844 L 24.941406 15.648438 C 24.941406 19.398438 27.984375 22.441406 31.734375 22.441406 L 37.234375 22.441406 L 37.234375 38.617188 L 29.355469 38.617188 C 13.785156 38.617188 1.164062 51.238281 1.164062 66.808594 L 1.164062 245.285156 C 1.164062 260.855469 13.785156 273.476562 29.355469 273.476562 L 345.644531 273.476562 C 361.214844 273.476562 373.835938 260.855469 373.835938 245.285156 L 373.835938 66.808594 C 373.835938 51.238281 361.214844 38.617188 345.644531 38.617188 Z M 346.664062 246.300781 L 28.339844 246.300781 L 28.339844 65.789062 L 346.664062 65.789062 Z M 346.664062 246.300781 " fill-opacity="1" fill-rule="nonzero"/><path fill="#ff0e0e" d="M 338.898438 73.554688 L 36.101562 73.554688 L 36.101562 238.539062 L 338.898438 238.539062 Z M 187.5 213.949219 C 155.570312 213.949219 129.59375 187.972656 129.59375 156.046875 C 129.59375 124.117188 155.570312 98.140625 187.5 98.140625 C 219.433594 98.140625 245.410156 124.117188 245.410156 156.046875 C 245.410156 187.972656 219.433594 213.949219 187.5 213.949219 Z M 187.5 213.949219 " fill-opacity="1" fill-rule="nonzero"/><g clip-path="url(#a1b4960dd5)"><path fill="#ff0e0e" d="M 329.65625 99.386719 C 328.941406 99 328.191406 98.703125 327.410156 98.496094 C 326.625 98.289062 325.824219 98.179688 325.015625 98.167969 C 324.203125 98.152344 323.402344 98.238281 322.613281 98.417969 C 321.820312 98.597656 321.0625 98.867188 320.335938 99.230469 L 279.257812 121.738281 L 279.257812 107.242188 C 279.261719 106.589844 279.234375 105.9375 279.171875 105.289062 C 279.113281 104.636719 279.023438 103.988281 278.898438 103.347656 C 278.773438 102.707031 278.621094 102.074219 278.433594 101.445312 C 278.246094 100.820312 278.027344 100.203125 277.78125 99.601562 C 277.535156 98.996094 277.257812 98.402344 276.949219 97.828125 C 276.644531 97.25 276.3125 96.6875 275.949219 96.144531 C 275.585938 95.601562 275.199219 95.074219 274.785156 94.570312 C 274.371094 94.0625 273.933594 93.578125 273.472656 93.117188 C 273.011719 92.652344 272.527344 92.214844 272.023438 91.800781 C 271.519531 91.386719 270.992188 90.996094 270.449219 90.632812 C 269.90625 90.269531 269.347656 89.9375 268.769531 89.628906 C 268.191406 89.320312 267.601562 89.042969 267 88.792969 C 266.394531 88.546875 265.777344 88.328125 265.152344 88.140625 C 264.527344 87.953125 263.894531 87.792969 263.253906 87.667969 C 262.609375 87.542969 261.964844 87.453125 261.3125 87.390625 C 260.664062 87.328125 260.011719 87.300781 259.359375 87.304688 L 132.636719 87.304688 C 131.980469 87.300781 131.328125 87.328125 130.671875 87.386719 C 130.019531 87.445312 129.371094 87.539062 128.726562 87.660156 C 128.082031 87.785156 127.445312 87.9375 126.816406 88.125 C 126.1875 88.3125 125.570312 88.527344 124.964844 88.773438 C 124.355469 89.023438 123.761719 89.296875 123.179688 89.601562 C 122.601562 89.910156 122.035156 90.242188 121.488281 90.601562 C 120.941406 90.964844 120.414062 91.351562 119.902344 91.765625 C 119.394531 92.175781 118.90625 92.613281 118.441406 93.074219 C 117.972656 93.535156 117.53125 94.019531 117.109375 94.523438 C 116.691406 95.027344 116.300781 95.550781 115.933594 96.09375 C 115.5625 96.636719 115.222656 97.199219 114.910156 97.773438 C 114.601562 98.351562 114.316406 98.941406 114.0625 99.546875 C 113.808594 100.152344 113.585938 100.765625 113.390625 101.394531 C 113.195312 102.019531 113.035156 102.65625 112.902344 103.296875 C 112.773438 103.941406 112.671875 104.585938 112.605469 105.238281 C 112.539062 105.890625 112.503906 106.546875 112.5 107.203125 L 112.5 201.167969 C 112.507812 201.820312 112.546875 202.472656 112.617188 203.125 C 112.6875 203.777344 112.789062 204.421875 112.925781 205.0625 C 113.058594 205.703125 113.222656 206.335938 113.417969 206.960938 C 113.613281 207.585938 113.839844 208.199219 114.09375 208.800781 C 114.351562 209.40625 114.636719 209.992188 114.949219 210.570312 C 115.261719 211.144531 115.601562 211.703125 115.96875 212.246094 C 116.335938 212.785156 116.730469 213.308594 117.148438 213.8125 C 117.566406 214.316406 118.011719 214.796875 118.476562 215.257812 C 118.941406 215.71875 119.429688 216.152344 119.9375 216.566406 C 120.445312 216.980469 120.972656 217.367188 121.519531 217.726562 C 122.0625 218.089844 122.625 218.421875 123.207031 218.726562 C 123.785156 219.035156 124.375 219.3125 124.980469 219.558594 C 125.589844 219.808594 126.203125 220.027344 126.832031 220.214844 C 127.457031 220.402344 128.09375 220.5625 128.734375 220.6875 C 129.378906 220.8125 130.023438 220.90625 130.675781 220.972656 C 131.328125 221.035156 131.980469 221.066406 132.636719 221.066406 L 259.359375 221.066406 C 260.007812 221.0625 260.660156 221.03125 261.308594 220.96875 C 261.957031 220.902344 262.597656 220.804688 263.238281 220.679688 C 263.878906 220.550781 264.507812 220.394531 265.132812 220.203125 C 265.753906 220.015625 266.367188 219.792969 266.96875 219.542969 C 267.570312 219.292969 268.160156 219.015625 268.734375 218.710938 C 269.308594 218.402344 269.867188 218.066406 270.40625 217.703125 C 270.949219 217.34375 271.472656 216.953125 271.976562 216.542969 C 272.480469 216.128906 272.960938 215.691406 273.421875 215.230469 C 273.882812 214.769531 274.320312 214.289062 274.734375 213.785156 C 275.144531 213.28125 275.535156 212.757812 275.894531 212.214844 C 276.257812 211.675781 276.59375 211.117188 276.902344 210.542969 C 277.207031 209.96875 277.484375 209.378906 277.734375 208.777344 C 277.984375 208.175781 278.207031 207.5625 278.394531 206.941406 C 278.585938 206.316406 278.742188 205.6875 278.871094 205.046875 C 278.996094 204.40625 279.09375 203.765625 279.160156 203.117188 C 279.222656 202.46875 279.253906 201.816406 279.257812 201.167969 L 279.257812 186.382812 L 320.328125 209.160156 C 321.03125 209.582031 321.78125 209.902344 322.574219 210.117188 C 323.371094 210.332031 324.179688 210.433594 325 210.425781 C 325.824219 210.414062 326.628906 210.292969 327.417969 210.058594 C 328.207031 209.824219 328.949219 209.484375 329.644531 209.042969 C 330.3125 208.609375 330.917969 208.097656 331.457031 207.515625 C 332 206.929688 332.464844 206.289062 332.851562 205.59375 C 333.238281 204.894531 333.535156 204.160156 333.742188 203.390625 C 333.949219 202.621094 334.058594 201.839844 334.074219 201.042969 L 334.074219 107.378906 C 334.074219 106.578125 333.972656 105.792969 333.769531 105.023438 C 333.570312 104.25 333.277344 103.511719 332.890625 102.816406 C 332.503906 102.117188 332.035156 101.476562 331.488281 100.894531 C 330.941406 100.316406 330.328125 99.8125 329.65625 99.386719 Z M 245.484375 125.195312 C 245.050781 125.195312 244.621094 125.15625 244.199219 125.070312 C 243.773438 124.988281 243.359375 124.863281 242.960938 124.699219 C 242.558594 124.53125 242.179688 124.328125 241.816406 124.089844 C 241.457031 123.847656 241.125 123.574219 240.816406 123.269531 C 240.511719 122.964844 240.238281 122.632812 239.996094 122.273438 C 239.753906 121.910156 239.550781 121.53125 239.382812 121.132812 C 239.21875 120.730469 239.09375 120.320312 239.007812 119.894531 C 238.921875 119.46875 238.878906 119.039062 238.878906 118.609375 C 238.878906 118.175781 238.921875 117.746094 239.003906 117.320312 C 239.089844 116.894531 239.214844 116.484375 239.378906 116.082031 C 239.542969 115.683594 239.746094 115.300781 239.988281 114.941406 C 240.226562 114.582031 240.5 114.246094 240.808594 113.941406 C 241.113281 113.632812 241.445312 113.359375 241.804688 113.121094 C 242.167969 112.878906 242.546875 112.675781 242.945312 112.507812 C 243.347656 112.34375 243.757812 112.21875 244.183594 112.132812 C 244.609375 112.046875 245.039062 112.007812 245.472656 112.007812 C 245.902344 112.003906 246.332031 112.046875 246.757812 112.132812 C 247.183594 112.214844 247.59375 112.339844 247.996094 112.507812 C 248.394531 112.671875 248.777344 112.875 249.136719 113.117188 C 249.496094 113.355469 249.828125 113.628906 250.136719 113.9375 C 250.441406 114.242188 250.714844 114.574219 250.957031 114.9375 C 251.199219 115.296875 251.402344 115.675781 251.566406 116.078125 C 251.734375 116.476562 251.859375 116.890625 251.941406 117.3125 C 252.027344 117.738281 252.070312 118.167969 252.070312 118.601562 C 252.074219 119.035156 252.035156 119.464844 251.953125 119.890625 C 251.871094 120.316406 251.746094 120.730469 251.582031 121.128906 C 251.417969 121.53125 251.214844 121.914062 250.976562 122.273438 C 250.734375 122.636719 250.460938 122.96875 250.15625 123.277344 C 249.851562 123.582031 249.515625 123.855469 249.15625 124.097656 C 248.796875 124.335938 248.414062 124.539062 248.011719 124.703125 C 247.613281 124.871094 247.199219 124.992188 246.773438 125.074219 C 246.347656 125.160156 245.917969 125.199219 245.484375 125.195312 Z M 245.484375 125.195312 " fill-opacity="1" fill-rule="nonzero"/></g></svg>