<svg xmlns="http://www.w3.org/2000/svg" xmlns:xlink="http://www.w3.org/1999/xlink" width="500" zoomAndPan="magnify" viewBox="0 0 375 374.999991" height="500" preserveAspectRatio="xMidYMid meet" version="1.0"><defs><clipPath id="c0ffdbadb1"><path d="M 1 21.09375 L 374 21.09375 L 374 354 L 1 354 Z M 1 21.09375 " clip-rule="nonzero"/></clipPath></defs><g clip-path="url(#c0ffdbadb1)"><path fill="#ff0e0e" d="M 338.710938 353.925781 L 36.320312 353.925781 C 23.765625 353.925781 12.554688 347.417969 6.320312 336.523438 C 0.0820312 325.625 0.171875 312.65625 6.539062 301.84375 L 162.59375 36.789062 C 168.410156 26.921875 178.722656 21.117188 190.160156 21.15625 C 201.609375 21.238281 211.835938 27.222656 217.507812 37.167969 L 267.542969 124.882812 L 258.160156 130.242188 L 208.128906 42.523438 C 204.386719 35.960938 197.644531 32.015625 190.089844 31.964844 C 190.039062 31.964844 189.992188 31.964844 189.941406 31.964844 C 182.449219 31.964844 175.71875 35.8125 171.910156 42.28125 L 15.855469 307.320312 C 11.476562 314.753906 11.417969 323.667969 15.703125 331.160156 C 19.984375 338.648438 27.695312 343.121094 36.320312 343.121094 L 338.710938 343.121094 C 347.273438 343.121094 354.949219 338.707031 359.25 331.300781 C 363.546875 323.898438 363.585938 315.042969 359.34375 307.605469 L 320.984375 240.355469 L 330.367188 234.996094 L 368.730469 302.25 C 374.902344 313.066406 374.855469 325.957031 368.597656 336.722656 C 362.34375 347.488281 351.171875 353.925781 338.710938 353.925781 Z M 338.710938 353.925781 " fill-opacity="1" fill-rule="nonzero"/></g><path fill="#ff0e0e" d="M 151.421875 224.074219 C 150.535156 225.964844 151.910156 228.132812 154 228.132812 L 172.128906 228.132812 C 174.117188 228.132812 175.460938 230.160156 174.6875 231.992188 L 151.019531 287.902344 C 150.449219 289.246094 152.234375 290.316406 153.160156 289.1875 L 214.484375 213.679688 C 215.5 212.425781 214.609375 210.554688 212.996094 210.554688 L 196.300781 210.554688 C 194.144531 210.554688 192.8125 208.203125 193.917969 206.351562 L 223.78125 156.390625 C 224.722656 154.816406 223.585938 152.808594 221.746094 152.808594 L 189.664062 152.808594 C 188.78125 152.808594 187.96875 153.304688 187.5625 154.085938 Z M 151.421875 224.074219 " fill-opacity="1" fill-rule="nonzero"/><path fill="#ff0e0e" d="M 272.921875 207.136719 L 273.671875 220.296875 C 273.699219 220.6875 273.433594 221.03125 273.050781 221.113281 L 269.570312 221.867188 C 269.019531 221.984375 268.523438 221.503906 268.628906 220.945312 L 271.359375 207.03125 C 271.539062 206.121094 272.863281 206.214844 272.921875 207.136719 Z M 244.921875 210.058594 L 262.1875 194.164062 C 262.875 193.527344 262.078125 192.4375 261.265625 192.902344 L 240.882812 204.53125 C 240.472656 204.765625 240.359375 205.296875 240.636719 205.679688 L 243.753906 209.941406 C 244.03125 210.324219 244.578125 210.375 244.921875 210.058594 Z M 256.835938 181.019531 L 241.039062 175.800781 C 240.585938 175.648438 240.109375 175.929688 240.023438 176.402344 L 239.09375 181.277344 C 239 181.753906 239.363281 182.199219 239.851562 182.210938 L 256.578125 182.5625 C 257.476562 182.570312 257.695312 181.300781 256.835938 181.019531 Z M 256.835938 181.019531 " fill-opacity="1" fill-rule="nonzero"/><path fill="#ff0e0e" d="M 349.582031 178.160156 L 334.183594 174.601562 C 333.421875 174.425781 333.578125 173.308594 334.351562 173.339844 L 350.117188 174.019531 C 350.488281 174.035156 350.769531 174.363281 350.726562 174.734375 L 350.363281 177.617188 C 350.316406 177.988281 349.953125 178.246094 349.582031 178.160156 Z M 331.195312 159.34375 L 348.898438 149.910156 C 349.246094 149.726562 349.34375 149.28125 349.113281 148.96875 L 346.109375 144.859375 C 345.882812 144.550781 345.441406 144.507812 345.160156 144.765625 L 330.460938 158.308594 C 329.910156 158.816406 330.53125 159.695312 331.195312 159.34375 Z M 316.140625 146.394531 L 318.960938 133.398438 C 319.023438 133.109375 318.882812 132.8125 318.617188 132.6875 L 315.367188 131.105469 C 314.933594 130.898438 314.4375 131.21875 314.453125 131.703125 L 314.878906 146.277344 C 314.898438 147.035156 315.976562 147.128906 316.140625 146.394531 Z M 316.140625 146.394531 " fill-opacity="1" fill-rule="nonzero"/><path fill="#ff0e0e" d="M 306.472656 155.613281 L 301.351562 146.855469 C 300.730469 145.792969 299.371094 145.4375 298.308594 146.058594 L 297.71875 146.402344 C 297.300781 146.648438 296.765625 146.507812 296.523438 146.089844 L 286.332031 128.652344 C 285.792969 127.726562 284.601562 127.410156 283.671875 127.957031 L 281.078125 129.476562 C 280.65625 129.71875 280.121094 129.582031 279.878906 129.164062 L 273.863281 118.867188 C 273.183594 117.707031 271.699219 117.316406 270.535156 117.996094 L 249.828125 130.101562 C 248.667969 130.78125 248.277344 132.265625 248.957031 133.429688 L 254.972656 143.722656 C 255.21875 144.144531 255.078125 144.675781 254.660156 144.921875 L 253.460938 145.625 C 252.53125 146.164062 252.21875 147.355469 252.765625 148.285156 L 262.953125 165.71875 C 263.195312 166.136719 263.058594 166.671875 262.636719 166.917969 L 262.046875 167.261719 C 260.988281 167.882812 260.632812 169.242188 261.253906 170.304688 L 266.371094 179.0625 C 266.992188 180.121094 268.355469 180.480469 269.414062 179.859375 L 305.6875 158.652344 C 306.734375 158.03125 307.09375 156.671875 306.472656 155.613281 Z M 306.472656 155.613281 " fill-opacity="1" fill-rule="nonzero"/><path fill="#ff0e0e" d="M 343.210938 227.75 L 332.023438 208.617188 C 331.628906 207.9375 331.855469 207.074219 332.53125 206.679688 L 333.316406 206.21875 C 334.582031 205.480469 335.011719 203.855469 334.269531 202.585938 L 329.339844 194.15625 C 328.597656 192.890625 326.972656 192.460938 325.707031 193.203125 L 319.871094 196.617188 C 319.421875 196.878906 318.84375 196.726562 318.578125 196.277344 L 310.140625 181.839844 C 309.25 180.316406 307.054688 179.640625 305.523438 180.628906 C 303.988281 181.621094 303.359375 183.617188 304.3125 185.246094 L 312.75 199.683594 C 313.015625 200.136719 312.863281 200.710938 312.414062 200.976562 L 300.492188 207.9375 C 300.042969 208.203125 299.464844 208.050781 299.199219 207.601562 L 290.761719 193.164062 C 289.871094 191.640625 287.675781 190.964844 286.144531 191.953125 C 284.609375 192.945312 283.980469 194.941406 284.933594 196.570312 L 293.371094 211.007812 C 293.636719 211.457031 293.484375 212.035156 293.035156 212.300781 L 289.15625 214.5625 C 287.890625 215.304688 287.464844 216.929688 288.203125 218.195312 L 293.132812 226.628906 C 293.875 227.894531 295.5 228.320312 296.765625 227.582031 L 297.550781 227.125 C 298.226562 226.730469 299.09375 226.953125 299.488281 227.632812 L 310.675781 246.765625 C 312.847656 250.472656 317.605469 251.722656 321.316406 249.558594 L 340.410156 238.390625 C 344.125 236.21875 345.375 231.457031 343.210938 227.75 Z M 343.210938 227.75 " fill-opacity="1" fill-rule="nonzero"/></svg>